<svg xmlns="http://www.w3.org/2000/svg" viewBox="0 0 572.22 448.47"><defs><style>.cls-1{fill:#000082;}.cls-2{fill:#0cdbe5;}.cls-3{fill:#36bfbb;}.cls-4{fill:#bfe4e8;}.cls-5{fill:#4fe0dc;}.cls-6{fill:#56d0ed;}.cls-7,.cls-9{fill:#fff;}.cls-8{fill:#9e9e9e;}.cls-9{stroke:#000;stroke-miterlimit:10;}</style></defs><g id="Arkansas"><path class="cls-1" d="M155.42,185.21H526.94c.17,0,.34,0,.5,0,.57,0,.26.92.24,1.28l-.11,1.87a5.53,5.53,0,0,0,.1,1.86,5,5,0,0,0,1.6,2.17,19.31,19.31,0,0,0,3.63,2.8,2.9,2.9,0,0,1,.66.38,5.94,5.94,0,0,1,1,2.43,11.44,11.44,0,0,1,.23,5.78,13.82,13.82,0,0,1-3.54,5.89c-3.18,3.44-7.07,6.12-10.6,9.2a35.07,35.07,0,0,0-4.8,5,16.93,16.93,0,0,0-3.18,6.09,18.85,18.85,0,0,1-1,2.55l-1.37,1.57-.73,1.37,1,0,2.89,0,4.37,0,5.48-.06,6.26-.07,6.65-.08,6.71-.08,6.38-.07,5.72-.06,4.68-.06,3.29,0,1,0h.32c.09,0,.25,0,.23.09a6.6,6.6,0,0,1-.17.77c-.33,1.48-.54,3-1,4.48a3.26,3.26,0,0,1-.31.72,6.17,6.17,0,0,0-.66,1.21c-.47,1.26-1,2.52-1.48,3.75-1.05,2.48-2.21,4.91-3.48,7.27l-.12.22a11.24,11.24,0,0,1-2.8,3.73c-2.58,2-6.44,1.7-8.92,3.82a10.73,10.73,0,0,0-2.33,3.26,79.53,79.53,0,0,0-5.24,12.28c-1,3.1-1.87,6.31-3.57,9.09a38.94,38.94,0,0,1-4.21,5.29,29.72,29.72,0,0,1-2.61,3c-.26.23-.56.42-.81.67a7.64,7.64,0,0,0-1.46,2.95,25.25,25.25,0,0,0-1.07,7.33c0,1.35,0,2.71.06,4.06.2,5.07.5,10.38-1.69,14.95a29.79,29.79,0,0,1-5,6.75,100.38,100.38,0,0,1-7,7.26c-2.82,2.57-5.93,4.82-8.53,7.61a35.55,35.55,0,0,0-7.17,11.88,52.58,52.58,0,0,0-2,6.77q-.37,1.72-.66,3.48a13.45,13.45,0,0,0-.3,4.14c.12.83.22,1.66.29,2.5a42.14,42.14,0,0,1,.11,4.9,40.07,40.07,0,0,1-1.61,9.78,12.8,12.8,0,0,1-2.47,5c-1.93,2.13-4.85,3-7.47,4.13-4.58,2-8.5,5.28-12.35,8.48-2.66,2.2-5.4,4.52-6.76,7.69-1.61,3.78-1,8.31-3,11.9-2.09,3.76-6.61,5.78-8.39,9.7a16.48,16.48,0,0,0-1.06,4.17L447.44,451a27.43,27.43,0,0,1-1.81,7c-2.3,5-7.61,8.59-8.31,14-.6,4.69,2.49,9.38,1.44,14a30.4,30.4,0,0,0-.91,3.46c-.25,2.38,1.27,5,2.33,7.13a49.64,49.64,0,0,1,2.17,5A50.86,50.86,0,0,1,445,511.91c.41,2.82.59,5.9-.57,8.57-.5,1.14-1.53,1.73-2,2.91a9.5,9.5,0,0,0-.67,5.81,7.72,7.72,0,0,1,.17,2.87c-.16,1-.57,2.32-1.57,2.55a11.53,11.53,0,0,1-3,.14H419.81l-1.73,0H410.7l-2,0h-4.05l-2.08,0h-2.12l-2.15,0h-4.42l-2.27,0h-2.29l-2.33,0h-2.35l-2.39,0-2.41,0h-2.43l-2.47,0H372.5l-2.51,0-2.53,0H364.9l-2.57,0-2.58,0h-2.61l-2.62,0-2.63,0-2.65,0h-2.66l-2.66,0-2.68,0-2.69,0h-2.69l-2.7,0-2.7,0-2.71,0h-2.7l-2.71,0-2.71,0-2.7,0-2.71,0h-2.69l-2.7,0-2.68,0-2.68,0H300.8l-2.66,0-2.64,0h-2.64l-2.62,0-2.6,0-2.59,0h-2.57l-2.55,0-2.53,0h-2.51l-2.49,0h-2.46l-2.44,0-2.41,0H262.7l-2.35,0H258l-2.29,0h-2.27l-2.22,0H249l-2.16,0h-4.2l-2,0h-5.88l-1.87,0H203.54l0-4.13,0-10.26.06-13.19.06-12.94,0-9.5a6.08,6.08,0,0,1,.09-1.28,1.45,1.45,0,0,0-.12-1,4.13,4.13,0,0,0-1.52-2,6,6,0,0,0-3.49-.7,20.29,20.29,0,0,0-7,1.51,10.75,10.75,0,0,1-1.53.55,6.1,6.1,0,0,1-1.81.07,14.57,14.57,0,0,1-2.86-.53,9.54,9.54,0,0,0-2.77-.6c-1.46,0-2.75.95-4.18,1.22a4.73,4.73,0,0,1-3.09-.46c-1.57-.81-2.49-2.36-3.84-3.43a6.5,6.5,0,0,1-2-3.52,41.82,41.82,0,0,1-2.1-10.9c-.12-2.2.05-4.35.05-6.55l.2-8.8.24-10.24.27-11.4.29-12.29.3-12.9.31-13.23.32-13.29.3-13.06.3-12.57.27-11.79.26-10.74.22-9.4.18-7.8.14-5.92.09-3.75,0-1.31Z" transform="translate(-63.36 -128)"/></g><g id="Diamond"><polygon class="cls-2" points="450.84 178.72 393.8 198.68 326.98 330.82 450.84 178.72"/><polygon class="cls-3" points="372.65 204.31 294.35 218.29 293.52 364.77 372.65 204.31"/><polygon class="cls-4" points="410.52 140.25 446.56 166.32 385.73 184.64 379.64 166.94 410.52 140.25"/><polygon class="cls-5" points="367.65 168.36 373.73 190.57 294.99 201.85 294.35 180.82 367.65 168.36"/><polygon class="cls-3" points="119.34 178.72 176.38 198.68 243.2 330.82 119.34 178.72"/><polygon class="cls-2" points="197.53 204.31 275.83 218.29 276.66 364.77 197.53 204.31"/><polygon class="cls-5" points="159.66 140.25 123.61 166.32 184.45 184.64 190.54 166.94 159.66 140.25"/><polygon class="cls-4" points="202.53 168.36 196.45 190.57 275.19 201.85 275.83 180.82 202.53 168.36"/><path class="cls-6" d="M348.51,293.33a1.93,1.93,0,0,1-.34,0L263.62,281.9,240,261.51l21.67-12.81,38.67-4.83H348.3l46.36-.2,40.31,5,21.67,12.81-22.12,20.23-84.61,11.43-1.61.17" transform="translate(-63.36 -128)"/><polygon class="cls-7" points="229.5 140.76 199.65 134.68 213.83 161.65 197.01 136.25 187.97 165.33 194.04 135.48 167.08 149.66 192.48 132.85 163.39 123.81 193.24 129.88 179.07 102.92 195.88 128.32 204.92 99.23 198.85 129.08 225.81 114.9 200.41 131.72 229.5 140.76"/><path class="cls-7" d="M252.53,293.7l-2.42-.62,5.55-27.27L231,278.76l-1.27-2.14L253,261.26,226.39,253l.62-2.42,27.26,5.55-13-24.63,2.15-1.28,15.36,23.21,8.26-26.57,2.42.62L264,254.74l24.63-13,1.27,2.15-23.2,15.36,26.57,8.26-.62,2.42-27.27-5.55,13,24.63-2.14,1.27-15.36-23.2Zm6.63-32.55-1.65,8.11,2.45-7.9,4.57,6.9-3.85-7.33,8.11,1.65-7.9-2.45,6.9-4.57-7.33,3.85,1.65-8.11-2.45,7.9-4.57-6.9,3.85,7.33L250.83,258l7.9,2.45-6.9,4.57Z" transform="translate(-63.36 -128)"/></g><g id="Goat"><path class="cls-7" d="M392.07,442.42a25.75,25.75,0,0,1,.85,2.88,7.85,7.85,0,0,0,.26.95A8.81,8.81,0,0,0,394,448a16.76,16.76,0,0,1,1.44,2.49,20.75,20.75,0,0,1,.56,2.95c.51,2.41,2.22,4.35,3.86,6.18,2.87.32,6,.6,8.51-.73l.21-2.57c-.41-.26-.21-.89-.32-1.39,0-.15-.11-.28-.14-.43a18.81,18.81,0,0,0-.94-3.19,13.1,13.1,0,0,0-1.57-2.71,18.09,18.09,0,0,1-2.3-3.23c-.58-1.34-.61-2.87-1.25-4.18a19.28,19.28,0,0,0-2-2.77,9.94,9.94,0,0,1-.71-1.11,7.62,7.62,0,0,1-1-2.75,7.09,7.09,0,0,0-.26-.93c-.29-.79-.58-1.42-.82-2.12a49.81,49.81,0,0,1-2.12-8.56,7.86,7.86,0,0,0-.92-3.18,11.76,11.76,0,0,0-2-2,11.31,11.31,0,0,1-1.38-1.64,17,17,0,0,1-1.49-2.54,18.41,18.41,0,0,1-1.78-8,7.91,7.91,0,0,0-.06-1.29,4.42,4.42,0,0,1,.69-2.84,24.63,24.63,0,0,1,1.7-2.67,27,27,0,0,0,2.26-3.21,19.5,19.5,0,0,0,1.36-4c.55-2.05,1.18-4.09,1.86-6.11.41-1.19.84-2.36,1.29-3.53.09-.25.18-.5.26-.76.14-.45.38-1.2.41-1.33a5,5,0,0,1,.33-.92c.25-.61.52-1.21.82-1.8a14.32,14.32,0,0,1,3.54-4.59c2.16-1.8,4.91-2.73,7.21-4.33,2.64-1.85,4.6-4.52,7.2-6.42,3.35-2.47,7.52-3.5,11.58-4.47a22.28,22.28,0,0,1,5.89-.88,18.57,18.57,0,0,1,7.17,2c.87.4,1.73.82,2.57,1.27,2.1,1.1,4.14,2.31,6.14,3.57l3,1.91a2.82,2.82,0,0,0,1.17.59,3.81,3.81,0,0,0,.48,0,11.24,11.24,0,0,0,2,0,6.43,6.43,0,0,0,4.07-2.35,2,2,0,0,1,.67-.64,2.52,2.52,0,0,1,.61-.11,2.45,2.45,0,0,0,2-2.47c0-.58-.28-1.22,0-1.72s.65-.52,1-.8a2.1,2.1,0,0,0,.41-2.15A89.12,89.12,0,0,0,461,344a41.14,41.14,0,0,1-1.76-5.3,18.85,18.85,0,0,1-.54-3.51,14.93,14.93,0,0,1,0-1.77c0-.2,0-.49.17-.61a.61.61,0,0,1,.13,0l.88-.24c.68-.2,1.34-.43,2-.69s1.1-.45,1.63-.7a1.51,1.51,0,0,1,.26-.12,3.1,3.1,0,0,0,1-.6,10.33,10.33,0,0,0,1.62-1.81,1.6,1.6,0,0,0,.33-.71,1,1,0,0,0-.27-.82,2.3,2.3,0,0,0-1.88-.54,12.25,12.25,0,0,0-3.82.81,8,8,0,0,1-1.07.37,4.77,4.77,0,0,1-1.72.23.29.29,0,0,1-.18-.07c-.12-.1-.11-.32-.14-.46a5.11,5.11,0,0,0-.32-1.16,6.31,6.31,0,0,0-1.26-2,7.34,7.34,0,0,0-3.29-2,1.2,1.2,0,0,0-.42,0,10.88,10.88,0,0,1-1.14.06,12.1,12.1,0,0,1-3.48-.5c-.68-.2-1.35-.46-2-.73l-2.42-1c-.39-.15-.79-.34-1.19-.46a2.29,2.29,0,0,0-.36-.07,4.4,4.4,0,0,1-1-.38,5.19,5.19,0,0,0-2.6-.59,6.64,6.64,0,0,0-1.82.62,6.06,6.06,0,0,1-.91.3c-.16,0-1.08.33-1.24.36s.25-.09,0,0a.47.47,0,0,1-.38,0c-.36-.19-.35-1-.41-1.38s-.17-.85-.28-1.26a8.22,8.22,0,0,0-1-2.39,9.26,9.26,0,0,0-1-1.3,1.69,1.69,0,0,0-.43-.37,2.12,2.12,0,0,0-1.53,0,3.67,3.67,0,0,1-.81.11.68.68,0,0,0-.31.08,4.38,4.38,0,0,0-1.44,1.4c-.64,1-1,2.19-1.56,3.23a21.38,21.38,0,0,0-1.18,2,4.5,4.5,0,0,0,.75,4.67,54.12,54.12,0,0,1-10.31,3.15l-2,.48a8.63,8.63,0,0,1-.88.2c-.37.05-1,.11-1.34.18l-1.23.25c-1.22.25-2.44.5-3.66.73a8.72,8.72,0,0,1-1.32.24c-.09,0-2.12.51-2.2.52a7.79,7.79,0,0,1,1.05-.29l-1.82.5-3.63,1-6.4,1.76c-1.33.36-2.66.73-4,1a31.71,31.71,0,0,1-4.13.39,64.39,64.39,0,0,1-7.35-.12c-1.23-.09-2.45-.22-3.67-.38l-1.83-.26c-.51-.09-1-.06-1.52-.13s-1.13,0-1.72,0l-1.88-.1-3.77-.18c-.48,0-1.43.17-2.46.25l-.77.07c-2.49.32-5,.54-7.51.64s-4.91.11-7.37,0-4.88-.3-7.31-.6c-1.38-.17-2.76-.37-4.13-.59-2.34-.39-4.66-.84-7-1.31s-4.63-1-6.94-1.46-4.63-.94-6.95-1.35-4.64-.75-7-1c-1.17-.12-2.34-.21-3.51-.28-1.35-.08-2.71-.05-4.06-.13-2.44-.15-4.87-.36-7.32-.51s-4.85-.26-7.29-.22a45,45,0,0,0-7.23.64c-4.68.82-9.15,2.54-13.64,4.07a8.11,8.11,0,0,1-3.28.62,6.62,6.62,0,0,1-2.79-1.07,5.79,5.79,0,0,1-1.2-1.07c-.42-.52-.86-1-1.3-1.52a11.66,11.66,0,0,0-2.42-2.18,15.32,15.32,0,0,0-3.64-1.52l-11.13-3.58a2.76,2.76,0,0,0-2.57.22,3.81,3.81,0,0,0-1.32,1.74,7.5,7.5,0,0,0-.34,4.2,20.05,20.05,0,0,0,1,3.45,6.15,6.15,0,0,1,.46,1.57,6.52,6.52,0,0,1-.06,1.71,13.61,13.61,0,0,1-.64,2.35,8.61,8.61,0,0,0-.54,3.14,1.3,1.3,0,0,0,.15.65,1.05,1.05,0,0,0,.73.42c1.1.21,2.14-.47,3.15-.95a19.09,19.09,0,0,1,6.91-1.38,3.21,3.21,0,0,1,1.68.3c2.22,1.12.27,3.42-.5,4.62a7,7,0,0,0-1,3.82,22,22,0,0,0,.54,3.95q.57,3,1.05,6c.2,1.23.38,2.46.55,3.69.11.74.2,1.48.3,2.22a18.38,18.38,0,0,0,.5,2.43c.39,1.32.66,2.08,1.09,3.48a1.52,1.52,0,0,1,.06.2.14.14,0,0,0,0,.07,2,2,0,0,1,.08.22c.09.3.18.6.26.9s.17.6.25.9l.12.45a1.29,1.29,0,0,0,0,.19l.07.22c.07.2.14.4.2.59.19.59.38,1.17.58,1.75.68,2,1.42,3.95,2.21,5.89.64,1.57,1.32,3.13,1.83,4.75a45.58,45.58,0,0,1,1.3,6.14.57.57,0,0,1-.46.77,8.5,8.5,0,0,0-5.12,7c-.08,1,0,2,0,3s-.09,1.79-.17,2.68l-.69,7.49a15.6,15.6,0,0,0-.15,1.8c0,.18,0,.35,0,.53s-.09.61-.13.91a19.44,19.44,0,0,1-.58,3.56,24.31,24.31,0,0,0-1,2.74,2.56,2.56,0,0,0,.78,2.64,1.94,1.94,0,0,1,.58.44,1.12,1.12,0,0,1,.12.68c-.16,2.15-1.95,3.83-3.18,5.49a2.49,2.49,0,0,0-.48,1.83,2.16,2.16,0,0,0,.46,1.14l1,1.14,1.94,2.29a6.59,6.59,0,0,0,1.19,1.17,8.79,8.79,0,0,0,2,.86,4.22,4.22,0,0,0,1.25.34.38.38,0,0,0,.29-.1,1.26,1.26,0,0,0,.35-.53c.37-.87.73-1.73,1.09-2.6l.3-.72a8,8,0,0,0,.45-1.36c.08-.31.16-.63.25-1a4,4,0,0,0,.11-.91l0-1.41a5.3,5.3,0,0,1,.09-1.32,5.18,5.18,0,0,1,.67-1.43l.76-1.29a2.12,2.12,0,0,0,.3-.65,3.31,3.31,0,0,0-.06-1.13c0-.18,0-.36,0-.54-.06-.56-.13-1.12-.16-1.69s-.07-1.25-.09-1.88c0-.31,0-.62,0-.94V420a1.48,1.48,0,0,0,0-.42,18.9,18.9,0,0,1,1.56,2.68A19.6,19.6,0,0,1,257,425a60.1,60.1,0,0,0,3.11,8.77,18.87,18.87,0,0,1,1.89,4.95c.14.87.12,1.74.21,2.61a12.05,12.05,0,0,0,.3,1.59c.13.5.33,1,.47,1.49a4.52,4.52,0,0,0,.26.73,7.18,7.18,0,0,0,.75,1.21,7,7,0,0,1,.5.71,3.94,3.94,0,0,1,.38,1.63,5.64,5.64,0,0,1,0,1.48,2.72,2.72,0,0,0-.12.62,3.87,3.87,0,0,0,.12.68,4.32,4.32,0,0,0,1.39,1.63,11.34,11.34,0,0,0,2.46,1.64,11,11,0,0,0,5.73,1.15c.75,0,1.65-.31,1.83-1l1.17.09a.77.77,0,0,0,.37,0c.24-.12.25-.45.24-.71-.16-2.63-.39-5.46-2.11-7.46-.39-.44-.83-.82-1.18-1.3a12.32,12.32,0,0,1-1.35-3.76,12.36,12.36,0,0,0-.83-2c-.9-1.79-2.09-3.4-3.08-5.13a15.12,15.12,0,0,1-1.25-2.67,10.66,10.66,0,0,1-.33-1.38,12.08,12.08,0,0,0-.38-1.16c-.1-.34-.2-.69-.29-1-.2-.68-.37-1.37-.52-2.07a31.65,31.65,0,0,1-.66-4.22,29.52,29.52,0,0,1-.1-4.31c0-.58,0-1.15.07-1.73a17.59,17.59,0,0,1,.3-1.74c.26-1.14.61-2.26.94-3.39l.12-.43c.68-2.36,1.25-4.75,1.77-7.15.27-1.21.52-2.41.76-3.62l.36-1.81c.14-.69.38-1.32.54-2a25,25,0,0,1,1.61-4.21.81.81,0,0,1,.77-.05,3.25,3.25,0,0,1,.65.47,7.45,7.45,0,0,0,2.18,1.27,6.52,6.52,0,0,1,.84.41,28.25,28.25,0,0,0,2.75,1.38c.77.37,1.55.73,2.32,1.08q3.21,1.47,6.49,2.8l1.87.75a8.1,8.1,0,0,1,.92.38c.15.08.27.19.43.26a13.22,13.22,0,0,0,1.56.41,29.67,29.67,0,0,1,3.15,1.15c1.8.75,3.58,1.59,5.44,2.18a44.26,44.26,0,0,0,6,1.27c2.43.39,4.87.78,7.31,1.09,1.23.15,2.46.29,3.69.39s2.4.23,3.57.2h.41c2.42-.05,4.83-.1,7.24-.3a42.16,42.16,0,0,0,7.15-1.18c.33-.09.67,0,1-.1l1.43-.28,7.31-1.48s.16,1.89.15,2.06a16.15,16.15,0,0,1-.29,2.2l-1.49,8.23c-.15.83-.46,2.17-.66,3,0,.16-.07.3-.1.45a6.11,6.11,0,0,1-.34,1.2c-.21.56-.43,1.11-.64,1.65-.45,1.15-.91,2.3-1.38,3.44s-.95,2.27-1.44,3.41c-.25.57-.49,1.14-.75,1.71s-.38,1-.6,1.5-.37,1.09-.57,1.63l-.59,1.62c-.43,1.16-.85,2.47-.33,3.59s1.74,1.66,2.25,2.73c.84,1.77-.65,3.8-.45,5.74a1,1,0,0,0,.13.42c.2.25.63.38.89.6a2,2,0,0,0,.58.31c.53.21,1.06.39,1.6.55a20,20,0,0,0,3.33.65,18.39,18.39,0,0,0,5.47-.23c.24,0,.4,0,.43-.29a4,4,0,0,0,0-.59v0a8.46,8.46,0,0,0-.1-.88,15.29,15.29,0,0,0-1.07-3.36c-.45-1.06-.95-2.09-1.37-3.16-.2-.53-.35-1.07-.53-1.61a2.6,2.6,0,0,0-.28-.45,8.59,8.59,0,0,1-1.05-3.67c-.19-2.65.75-5.23,1.71-7.7a40.07,40.07,0,0,1,2.74-5.95c.58-1,1.23-1.9,1.83-2.86a28.71,28.71,0,0,0,2-3.84,5.14,5.14,0,0,0,.53-1.92,9.25,9.25,0,0,0-.12-.92,5.5,5.5,0,0,1,.37-1.92,12.31,12.31,0,0,1,.56-1.42l1.53-3.31,1.41-3c.05-.09.08-.25.18-.25l.46,0,1.76.06a9.94,9.94,0,0,1,2.31.21,7.57,7.57,0,0,1,2.5,1.38c3.53,2.84,5.15,7.36,7.69,11.1,3.25,4.79,8.08,8.36,11.24,13.2a31.81,31.81,0,0,1,3,6.1c.4,1.07.77,2.15,1.12,3.23.18.55.35,1.09.51,1.64.08.27.15.56.25.82s.22.39.3.61C391.8,441.63,391.93,442,392.07,442.42Z" transform="translate(-63.36 -128)"/><path class="cls-8" d="M403.61,460.4a37,37,0,0,1-3.82-.26l-.19,0-.13-.15c-1.53-1.69-3.43-3.81-4-6.41-.08-.38-.13-.76-.18-1.15a8.55,8.55,0,0,0-.35-1.73,8.24,8.24,0,0,0-.9-1.6l-.52-.8a9.81,9.81,0,0,1-.84-1.87,8.85,8.85,0,0,1-.27-1,22.38,22.38,0,0,0-.77-2.62l-.07-.2c-.13-.39-.26-.78-.41-1.16a1.34,1.34,0,0,0-.13-.27,2.11,2.11,0,0,1-.16-.34,4.06,4.06,0,0,1-.19-.59l-.08-.27c-.16-.54-.33-1.08-.5-1.62-.39-1.21-.76-2.26-1.12-3.21a31.05,31.05,0,0,0-3-6,47.82,47.82,0,0,0-5.67-6.71,51,51,0,0,1-5.56-6.49c-.83-1.22-1.58-2.54-2.3-3.82-1.53-2.73-3-5.31-5.29-7.17a6.92,6.92,0,0,0-2.34-1.29,5.52,5.52,0,0,0-1.54-.17l-.65,0-1.75-.06h-.17l-2.94,6.32a12.81,12.81,0,0,0-.54,1.36,5.06,5.06,0,0,0-.34,1.74,1.77,1.77,0,0,0,.05.32,2.54,2.54,0,0,1,.07.65,5.75,5.75,0,0,1-.57,2.1,30.36,30.36,0,0,1-2.06,3.91c-.26.41-.52.81-.79,1.21s-.71,1.08-1,1.64a39.28,39.28,0,0,0-2.7,5.87c-1,2.52-1.86,5-1.68,7.49a7.82,7.82,0,0,0,1,3.44.5.5,0,0,0,.08.12,1.68,1.68,0,0,1,.25.43c.07.21.13.42.2.63s.2.65.32,1c.26.67.55,1.32.84,2,.18.39.35.78.52,1.17a16.42,16.42,0,0,1,1.1,3.48,9.24,9.24,0,0,1,.11.92l0,.17a2,2,0,0,1,0,.55.77.77,0,0,1-.74.71c-.7.13-1.33.22-2,.28a19.47,19.47,0,0,1-3.74,0,19.7,19.7,0,0,1-3.42-.67c-.55-.16-1.1-.35-1.64-.56a2.33,2.33,0,0,1-.73-.41,1.81,1.81,0,0,0-.3-.18,1.89,1.89,0,0,1-.65-.49,1.25,1.25,0,0,1-.23-.67,7.34,7.34,0,0,1,.36-2.67,3.12,3.12,0,0,0-.88-4.11,5.21,5.21,0,0,1-1.25-1.53c-.58-1.27-.16-2.66.32-4l.59-1.61c.08-.21.14-.42.21-.63s.23-.71.37-1,.21-.49.3-.73.2-.51.31-.76l.74-1.71c.49-1.13,1-2.27,1.43-3.4s.93-2.28,1.38-3.43l.65-1.65a5.75,5.75,0,0,0,.31-1.1c0-.16.06-.32.1-.49.22-.87.51-2.17.66-3l1.49-8.22a18.09,18.09,0,0,0,.29-2.14c0-.1-.05-.74-.11-1.43l-6.76,1.36-1.43.28a4.93,4.93,0,0,1-.54.05,2,2,0,0,0-.45,0,42.27,42.27,0,0,1-7.23,1.2c-2.44.2-4.89.25-7.27.3h-.41c-1,0-2-.07-3-.15l-.59-.05c-1.18-.1-2.39-.23-3.71-.39-2.46-.31-4.93-.71-7.33-1.1a42.21,42.21,0,0,1-6.1-1.29,44.51,44.51,0,0,1-4.17-1.63l-1.32-.56a29.53,29.53,0,0,0-3.09-1.13,4.75,4.75,0,0,0-.57-.14,5,5,0,0,1-1.05-.29,3.79,3.79,0,0,1-.34-.2l-.13-.09a4.17,4.17,0,0,0-.58-.24l-.28-.1-1.88-.76c-2.18-.88-4.37-1.83-6.51-2.8l-2.32-1.09-.67-.31a20.37,20.37,0,0,1-2.13-1.09,4.86,4.86,0,0,0-.76-.37,9.52,9.52,0,0,1-.92-.41,8.93,8.93,0,0,1-1.41-1l-.08-.07A2.19,2.19,0,0,0,273,392a.42.42,0,0,0-.18,0c-.11.25-.22.5-.34.75a17.19,17.19,0,0,0-1.18,3.18,10,10,0,0,1-.26,1c-.1.34-.2.68-.27,1l-.36,1.81c-.24,1.21-.49,2.42-.76,3.62-.6,2.77-1.16,5.06-1.77,7.19l-.32,1.09c-.26.89-.53,1.8-.74,2.7a15.38,15.38,0,0,0-.29,1.69,9.76,9.76,0,0,0-.05,1.08c0,.21,0,.41,0,.61a31.6,31.6,0,0,0,.09,4.25,34.67,34.67,0,0,0,.66,4.15c.15.69.32,1.37.51,2.05.09.34.19.67.29,1,0,.14.09.27.14.4a6.27,6.27,0,0,1,.25.81l0,.1a7.77,7.77,0,0,0,.3,1.22,14.44,14.44,0,0,0,1.2,2.58c.4.7.83,1.37,1.26,2a35.15,35.15,0,0,1,1.84,3.1,13.79,13.79,0,0,1,.86,2.11c.11.35.2.71.29,1.07a7.19,7.19,0,0,0,1,2.55,6.38,6.38,0,0,0,.66.74l.49.53c1.9,2.2,2.09,5.41,2.23,7.75a1.13,1.13,0,0,1-.51,1.18,1,1,0,0,1-.64.09l-.82-.06a2.56,2.56,0,0,1-2.1,1,11.83,11.83,0,0,1-8.56-2.92l-.18-.15a4.07,4.07,0,0,1-1.36-1.71,4.51,4.51,0,0,1-.14-.78,1.64,1.64,0,0,1,.09-.58c0-.06,0-.11,0-.16a5.16,5.16,0,0,0,0-1.36,3.51,3.51,0,0,0-.32-1.43,5.36,5.36,0,0,0-.34-.49l-.12-.16a8.07,8.07,0,0,1-.8-1.28,4.85,4.85,0,0,1-.29-.82c-.06-.22-.13-.43-.21-.64s-.19-.58-.26-.87a11.86,11.86,0,0,1-.31-1.65c-.05-.39-.07-.78-.09-1.17s0-1-.12-1.42a14.58,14.58,0,0,0-1.47-4c-.13-.27-.26-.54-.38-.81a60.56,60.56,0,0,1-3.14-8.84l0-.14a18.53,18.53,0,0,0-.85-2.51c-.17-.38-.37-.75-.58-1.12v.07q0,.93.09,1.86c0,.44.07.89.12,1.33l0,.34c0,.1,0,.2,0,.3s0,.15,0,.23l0,.25a2.17,2.17,0,0,1-.34,1.84l-.77,1.3a3.57,3.57,0,0,0-.68,2.48l0,1.42a4.17,4.17,0,0,1-.13,1c-.09.31-.16.63-.24.94a10,10,0,0,1-.47,1.43l-.3.73c-.36.86-.73,1.73-1.1,2.59a1.74,1.74,0,0,1-.5.74.93.93,0,0,1-.64.2,5,5,0,0,1-1.39-.37l-.42-.15a7.5,7.5,0,0,1-1.66-.77,6.65,6.65,0,0,1-1.28-1.26l-2.92-3.43A2.67,2.67,0,0,1,242,433a3.07,3.07,0,0,1,.58-2.2c.26-.35.55-.71.84-1.07,1-1.28,2.12-2.61,2.24-4.16a.65.65,0,0,0,0-.36.9.9,0,0,0-.25-.19l-.19-.12a3.05,3.05,0,0,1-1-3.16,9.09,9.09,0,0,1,.61-1.73c.14-.35.29-.7.41-1.06a13,13,0,0,0,.47-2.64l.09-.82.06-.4c0-.16.05-.33.07-.49a1.91,1.91,0,0,0,0-.2,2.45,2.45,0,0,1,0-.27,8,8,0,0,1,.09-1.31c0-.19,0-.37.07-.55l.69-7.5c.08-.87.16-1.76.16-2.63,0-.35,0-.7,0-1.05a19.28,19.28,0,0,1,0-2,9,9,0,0,1,5.43-7.4.63.63,0,0,0,.2-.09s0-.09-.05-.13a45.18,45.18,0,0,0-1.28-6.07c-.41-1.31-.95-2.62-1.47-3.88l-.34-.83c-.8-1.94-1.54-3.93-2.22-5.92-.2-.58-.39-1.17-.58-1.75l-.18-.53-.1-.28a1.16,1.16,0,0,1,0-.18l-.13-.49-.24-.9c-.08-.29-.17-.59-.26-.88a.88.88,0,0,0-.05-.15l-.11-.34c-.16-.53-.3-1-.43-1.38-.22-.67-.42-1.28-.66-2.11a19.55,19.55,0,0,1-.52-2.51c-.09-.74-.19-1.47-.29-2.21-.17-1.23-.35-2.46-.55-3.68-.32-2-.67-4-1.05-6l0-.21a21.14,21.14,0,0,1-.51-3.83,7.35,7.35,0,0,1,1-4.1l.3-.46c.53-.76,1.31-1.92,1.12-2.69a1.24,1.24,0,0,0-.72-.75,2.74,2.74,0,0,0-1.43-.25,18.67,18.67,0,0,0-6.73,1.33l-.49.25a4.72,4.72,0,0,1-3,.75,1.54,1.54,0,0,1-1.05-.66,1.72,1.72,0,0,1-.23-.9,9,9,0,0,1,.57-3.32,11.5,11.5,0,0,0,.61-2.26,6.06,6.06,0,0,0,.06-1.57,4.83,4.83,0,0,0-.36-1.28l-.07-.18a19.57,19.57,0,0,1-1-3.54,8.07,8.07,0,0,1,.36-4.48,4.44,4.44,0,0,1,1.51-1.95,3.3,3.3,0,0,1,3-.29L246,324.61a16,16,0,0,1,3.76,1.58,12.75,12.75,0,0,1,2.53,2.26c.44.51.89,1,1.31,1.54a5.06,5.06,0,0,0,1.07,1,6.3,6.3,0,0,0,2.58,1,7.55,7.55,0,0,0,3.07-.59l2.19-.76A73.88,73.88,0,0,1,274,327.27a45.26,45.26,0,0,1,7.31-.65c2.71,0,5.34.09,7.34.22l3.62.25,3.7.26c.69,0,1.38.06,2.08.07s1.31,0,2,.06c1.13.06,2.32.16,3.53.29,2.16.22,4.45.55,7,1s4.92.93,7,1.35l2.8.59q2.07.45,4.14.87c2.77.57,4.91,1,6.95,1.3,1.45.24,2.79.44,4.11.6,2.4.29,4.84.49,7.27.59s4.89.09,7.33,0,5-.32,7.47-.63c.26,0,.53-.06.79-.08.44,0,.87-.09,1.25-.14a10.83,10.83,0,0,1,1.27-.11l3.77.18,1.89.11h.68a6.47,6.47,0,0,1,1.07,0c.23,0,.45,0,.67,0a8.52,8.52,0,0,1,.87.08c.6.1,1.2.19,1.81.27,1.21.16,2.44.28,3.65.37a63.34,63.34,0,0,0,7.29.12,31.44,31.44,0,0,0,4.07-.38c1.33-.23,2.67-.6,4-.95L401.32,330a5.08,5.08,0,0,1,1.25-.34l.48-.09h0a3.74,3.74,0,0,1,.73-.15,4.31,4.31,0,0,0,.81-.14l.42-.09,2.43-.48h.05l.1,0,.21,0,.6-.13.27-.05h0l1.26-.26c.28-.05.7-.1,1.06-.14l.32,0a3.14,3.14,0,0,0,.51-.12l.31-.08,2-.47a57.91,57.91,0,0,0,9.64-2.87,5,5,0,0,1-.43-4.67,9.57,9.57,0,0,1,.76-1.33c.15-.23.3-.47.44-.71a14.3,14.3,0,0,0,.67-1.42,12.47,12.47,0,0,1,.91-1.83,4.83,4.83,0,0,1,1.61-1.57,1.25,1.25,0,0,1,.55-.15,3.2,3.2,0,0,0,.71-.1l.12,0a2.37,2.37,0,0,1,1.77.07,2.44,2.44,0,0,1,.55.47,9,9,0,0,1,1.09,1.37,8.92,8.92,0,0,1,1.06,2.53c.11.43.2.86.28,1.3a2.27,2.27,0,0,1,0,.34,5.14,5.14,0,0,0,.1.61l.47-.15v0h0c.33-.11.71-.22.8-.24a4.93,4.93,0,0,0,.82-.27l.32-.14a4.49,4.49,0,0,1,4.49.11l.31.14a2.68,2.68,0,0,0,.57.21,2.38,2.38,0,0,1,.43.08c.29.09.57.21.85.32l2.79,1.12c.66.26,1.32.52,2,.71a11.13,11.13,0,0,0,3.33.48c.36,0,.73,0,1.09-.05a1.44,1.44,0,0,1,.62.05,7.74,7.74,0,0,1,3.51,2.1,6.84,6.84,0,0,1,1.36,2.17,7,7,0,0,1,.35,1.27v.12a4.78,4.78,0,0,0,1.4-.22,8.75,8.75,0,0,0,1-.35,12.65,12.65,0,0,1,4-.85,2.79,2.79,0,0,1,2.28.71,1.56,1.56,0,0,1,.39,1.22,2.14,2.14,0,0,1-.42.93,11,11,0,0,1-1.7,1.9,3.87,3.87,0,0,1-1.11.69,1.89,1.89,0,0,0-.21.09c-.56.27-1.11.51-1.67.73s-1.35.49-2,.69l-.59.17-.22.06v.22a13.89,13.89,0,0,0,0,1.71,17.89,17.89,0,0,0,.52,3.42,40.45,40.45,0,0,0,1.75,5.22c.27.7.55,1.4.83,2.1a68.71,68.71,0,0,1,3.31,9.56,2.5,2.5,0,0,1-.56,2.64l-.43.31a1.55,1.55,0,0,0-.44.37,1.53,1.53,0,0,0,0,.89,5,5,0,0,1,.07.54,3,3,0,0,1-2.42,3l-.18,0a2,2,0,0,0-.32.06,1.44,1.44,0,0,0-.41.41l-.06.08a6.91,6.91,0,0,1-4.39,2.54,7.25,7.25,0,0,1-1.54,0l-.55,0h-.53a2.78,2.78,0,0,1-1.19-.54l-.19-.13-3-1.91c-2.33-1.47-4.27-2.59-6.1-3.55-.87-.45-1.73-.88-2.55-1.26a18.21,18.21,0,0,0-7-2,22,22,0,0,0-5.77.86c-3.78.91-8.07,1.94-11.4,4.39a31.64,31.64,0,0,0-3.39,3.06,30.79,30.79,0,0,1-3.81,3.37,30.37,30.37,0,0,1-3.25,1.88,21.77,21.77,0,0,0-3.93,2.42,13.78,13.78,0,0,0-3.41,4.44c-.28.55-.54,1.12-.8,1.76l-.09.21a2.52,2.52,0,0,0-.22.61c0,.13-.14.51-.39,1.31-.12.35-.21.61-.31.86-.44,1.16-.87,2.34-1.27,3.52-.68,2-1.31,4-1.86,6.08l-.09.32a17.33,17.33,0,0,1-1.31,3.74,17.77,17.77,0,0,1-1.68,2.46c-.21.27-.41.54-.61.82a23.08,23.08,0,0,0-1.67,2.61,3.84,3.84,0,0,0-.63,2.52,9.07,9.07,0,0,1,.06,1.27v.1a17.91,17.91,0,0,0,1.73,7.8,16.78,16.78,0,0,0,1.44,2.47,11.48,11.48,0,0,0,1.33,1.57l.59.54a7.71,7.71,0,0,1,1.46,1.55,8,8,0,0,1,1,3.2l0,.18a48.52,48.52,0,0,0,2.09,8.47c.13.38.27.73.42,1.1s.27.65.4,1a6.65,6.65,0,0,1,.28,1,7.2,7.2,0,0,0,1,2.6,10.38,10.38,0,0,0,.67,1.05c.22.3.46.59.7.88a9.71,9.71,0,0,1,1.38,2,9.94,9.94,0,0,1,.71,2.27,10.1,10.1,0,0,0,.55,1.91,10.31,10.31,0,0,0,1.52,2.24l.73.9a14,14,0,0,1,1.62,2.81,16.4,16.4,0,0,1,.92,3.12l0,.16a.78.78,0,0,0,.05.14,1.42,1.42,0,0,1,.1.29,3.55,3.55,0,0,1,0,.63,1.37,1.37,0,0,0,0,.44l.27.16-.27,3.16-.24.13A10.6,10.6,0,0,1,403.61,460.4Zm-3.52-1.24c2.93.32,5.55.48,7.78-.57l.18-2a1.63,1.63,0,0,1-.27-1.06,1.89,1.89,0,0,0,0-.43.69.69,0,0,0-.05-.13,2.29,2.29,0,0,1-.09-.28l0-.17a16.65,16.65,0,0,0-.87-2.94,13.2,13.2,0,0,0-1.5-2.61l-.7-.87a10.74,10.74,0,0,1-1.66-2.46,10.07,10.07,0,0,1-.62-2.1,9,9,0,0,0-.63-2.06,9.75,9.75,0,0,0-1.25-1.78c-.25-.3-.5-.6-.73-.91a11,11,0,0,1-.74-1.17,8,8,0,0,1-1.1-2.91,6.18,6.18,0,0,0-.24-.84c-.13-.35-.26-.67-.38-1s-.31-.76-.45-1.15a50.59,50.59,0,0,1-2.13-8.65l0-.18a7.14,7.14,0,0,0-.82-2.8,6.5,6.5,0,0,0-1.28-1.35l-.63-.57a12.81,12.81,0,0,1-1.44-1.71,17,17,0,0,1-1.54-2.62,19,19,0,0,1-1.82-8.24v-.1a8,8,0,0,0-.05-1.11,5,5,0,0,1,.74-3.15,25.19,25.19,0,0,1,1.74-2.73l.63-.82a18.14,18.14,0,0,0,1.59-2.33,17.16,17.16,0,0,0,1.23-3.53l.08-.32c.56-2.06,1.19-4.12,1.88-6.14.41-1.19.84-2.39,1.29-3.55.09-.24.18-.48.25-.73.17-.51.37-1.13.4-1.27a3.3,3.3,0,0,1,.28-.82l.08-.2c.27-.66.55-1.26.84-1.84a14.83,14.83,0,0,1,3.66-4.75,23,23,0,0,1,4.1-2.53,30.68,30.68,0,0,0,3.15-1.82,29.9,29.9,0,0,0,3.67-3.26,31,31,0,0,1,3.51-3.15c3.49-2.57,7.88-3.63,11.76-4.56a23.44,23.44,0,0,1,6-.89,19.05,19.05,0,0,1,7.36,2c.84.39,1.71.82,2.6,1.28,1.84,1,3.8,2.11,6.17,3.59l3,1.92.2.14a1.77,1.77,0,0,0,.74.37h.44l.58,0a7.57,7.57,0,0,0,1.35,0,5.89,5.89,0,0,0,3.75-2.17,2.41,2.41,0,0,1,.86-.79,2.34,2.34,0,0,1,.59-.13l.15,0a1.94,1.94,0,0,0,1.57-1.94,3.11,3.11,0,0,0-.06-.44,2.24,2.24,0,0,1,.15-1.56,2.28,2.28,0,0,1,.74-.69,2.35,2.35,0,0,0,.32-.23c.36-.32.44-.88.25-1.66a67.64,67.64,0,0,0-3.26-9.42c-.28-.7-.56-1.4-.83-2.1a41.07,41.07,0,0,1-1.79-5.36,19.58,19.58,0,0,1-.55-3.6,14.07,14.07,0,0,1,0-1.84,1.07,1.07,0,0,1,.4-1l.08,0,.48-.13.57-.15c.66-.2,1.31-.42,1.95-.67s1.07-.45,1.6-.7l.3-.13a2.42,2.42,0,0,0,.8-.51,9,9,0,0,0,1.54-1.72,1.23,1.23,0,0,0,.25-.48.57.57,0,0,0-.15-.43,1.78,1.78,0,0,0-1.48-.37,11.46,11.46,0,0,0-3.66.78c-.37.14-.74.28-1.12.39a5.34,5.34,0,0,1-1.92.24.78.78,0,0,1-.46-.2,1,1,0,0,1-.28-.67,5.55,5.55,0,0,0-.3-1.14,6.19,6.19,0,0,0-1.17-1.87,6.83,6.83,0,0,0-3.06-1.81.58.58,0,0,0-.23,0,11.81,11.81,0,0,1-1.18.06h-.05a12.35,12.35,0,0,1-3.58-.52c-.7-.21-1.39-.48-2.05-.74l-2.83-1.12a7.05,7.05,0,0,0-.76-.3l-.17,0h-.12a3.09,3.09,0,0,1-.84-.3l-.26-.12a5.14,5.14,0,0,0-2.35-.56,5.42,5.42,0,0,0-1.36.45l-.33.14a6.17,6.17,0,0,1-1,.33l-.72.21-.46.14a1,1,0,0,1-.31.08l-.19,0,0,0a.87.87,0,0,1-.26-.08c-.51-.27-.58-1-.63-1.47,0-.1,0-.19,0-.26-.08-.41-.16-.82-.27-1.23a7.87,7.87,0,0,0-.93-2.24,8.31,8.31,0,0,0-1-1.23,1.43,1.43,0,0,0-.32-.27,1.52,1.52,0,0,0-1.05,0l-.12,0a4.18,4.18,0,0,1-.91.12,3.67,3.67,0,0,0-1.34,1.25,12.06,12.06,0,0,0-.83,1.69,15,15,0,0,1-.72,1.52c-.15.26-.31.51-.47.77a7.46,7.46,0,0,0-.68,1.18,4,4,0,0,0,.66,4.13l.45.51-.61.28a54.09,54.09,0,0,1-10.41,3.19l-2,.47-.27.07a5.5,5.5,0,0,1-.65.15l-.34,0c-.33,0-.71.08-1,.13l-1.4.28c-1.16.25-2.33.48-3.5.7l-.38.08a4.94,4.94,0,0,1-1,.17l-1.22.3-.85.2-10.81,3c-1.32.36-2.68.73-4.06,1a31.57,31.57,0,0,1-4.2.4,65.44,65.44,0,0,1-7.41-.12c-1.22-.09-2.47-.22-3.7-.38-.61-.08-1.23-.17-1.84-.27-.26,0-.51,0-.76-.07a6.32,6.32,0,0,1-.75-.06,5.61,5.61,0,0,0-.92,0c-.25,0-.5,0-.76,0l-1.88-.1-3.76-.18a8.34,8.34,0,0,0-1.1.11l-1.3.14-.74.07c-2.49.32-5,.53-7.56.64s-5,.11-7.41,0-4.93-.29-7.35-.59c-1.33-.16-2.69-.36-4.15-.6-2.06-.34-4.21-.74-7-1.31l-4.15-.87-2.79-.59c-2-.42-4.44-.91-6.94-1.35s-4.81-.77-6.94-1c-1.2-.12-2.37-.22-3.49-.28-.64,0-1.28-.05-1.93-.06s-1.42,0-2.13-.07l-3.7-.26-3.62-.25c-2-.13-4.59-.27-7.25-.22a44.67,44.67,0,0,0-7.16.63,74.22,74.22,0,0,0-11.36,3.29l-2.2.77a8.53,8.53,0,0,1-3.48.64,7.24,7.24,0,0,1-3-1.14,5.89,5.89,0,0,1-1.33-1.19c-.42-.51-.86-1-1.29-1.5A11.14,11.14,0,0,0,249.2,327a15,15,0,0,0-3.53-1.47L234.55,322a2.22,2.22,0,0,0-2.13.15,3.32,3.32,0,0,0-1.15,1.52,7,7,0,0,0-.31,3.92,19.21,19.21,0,0,0,1,3.36l.07.17a6.48,6.48,0,0,1,.42,1.53,6.82,6.82,0,0,1-.07,1.84,12.75,12.75,0,0,1-.67,2.44,8.12,8.12,0,0,0-.5,3,1.09,1.09,0,0,0,.07.39.6.6,0,0,0,.4.2,3.81,3.81,0,0,0,2.33-.65l.51-.26a19.54,19.54,0,0,1,7.09-1.43,3.77,3.77,0,0,1,1.95.35,2.18,2.18,0,0,1,1.23,1.4c.32,1.21-.59,2.54-1.25,3.51-.11.15-.2.3-.29.43a6.4,6.4,0,0,0-.88,3.54,19.75,19.75,0,0,0,.49,3.66l0,.21c.38,2,.74,4,1.06,6,.19,1.23.38,2.47.55,3.71.1.73.2,1.47.29,2.21a18.94,18.94,0,0,0,.49,2.36c.24.82.43,1.42.65,2.09l.44,1.39a1.14,1.14,0,0,1,.07.28s.06.11.09.21c.09.3.18.6.26.9s.17.61.25.91l.21.78-.44.27.48-.17.18.55c.19.58.38,1.16.58,1.74.67,2,1.41,3.94,2.19,5.86l.34.83c.53,1.28,1.08,2.6,1.51,4a47,47,0,0,1,1.31,6.21,1.2,1.2,0,0,1-.08.79,1.22,1.22,0,0,1-.67.52,8,8,0,0,0-4.82,6.56,17,17,0,0,0,0,1.89c0,.36,0,.72,0,1.08,0,.92-.09,1.83-.17,2.71L247,412.4c0,.19,0,.39-.07.58a9.3,9.3,0,0,0-.08,1.16c0,.05,0,.11,0,.16a1.85,1.85,0,0,1,0,.43c0,.19,0,.37-.08.56l-.06.36-.09.81a14,14,0,0,1-.51,2.84,11.19,11.19,0,0,1-.44,1.14,8.23,8.23,0,0,0-.55,1.55,2.07,2.07,0,0,0,.58,2.12l.14.09a1.68,1.68,0,0,1,.56.49,1.53,1.53,0,0,1,.21,1c-.14,1.85-1.38,3.37-2.46,4.71-.29.35-.57.7-.82,1a2,2,0,0,0-.39,1.46,1.7,1.7,0,0,0,.35.88l2.91,3.44a6.54,6.54,0,0,0,1.09,1.08,6.41,6.41,0,0,0,1.43.64l.44.16a4.1,4.1,0,0,0,1.1.31,1.7,1.7,0,0,0,.15-.33c.37-.86.73-1.72,1.09-2.59l.3-.72a9.76,9.76,0,0,0,.43-1.29l.24-1a3,3,0,0,0,.1-.77l0-1.41a5.6,5.6,0,0,1,.1-1.45,5.75,5.75,0,0,1,.73-1.56l.76-1.3a2.12,2.12,0,0,0,.25-.5,2,2,0,0,0,0-.68c0-.09,0-.18,0-.28s0-.23,0-.34V425l0-.34c0-.45-.09-.91-.12-1.37q-.06-.94-.09-1.89c0-.32,0-.63,0-.95V420a1,1,0,0,1,0-.16c0-.05,0-.1,0-.15h.33l.56-.37h0a20,20,0,0,1,1.61,2.75,20.36,20.36,0,0,1,.89,2.63l0,.14a59.75,59.75,0,0,0,3.09,8.7c.12.27.25.53.37.8a15.51,15.51,0,0,1,1.56,4.29c.08.51.1,1,.13,1.52s0,.74.08,1.11a11.85,11.85,0,0,0,.29,1.52c.06.26.15.52.24.79s.16.46.22.69a4.21,4.21,0,0,0,.23.64,6.26,6.26,0,0,0,.7,1.13l.11.15a6.82,6.82,0,0,1,.43.62,4.46,4.46,0,0,1,.44,1.83,6.33,6.33,0,0,1,0,1.62,2.27,2.27,0,0,1-.06.25.87.87,0,0,0-.05.23,3.33,3.33,0,0,0,.1.58,3.44,3.44,0,0,0,1.05,1.23l.19.16a11.12,11.12,0,0,0,2.35,1.58,10.65,10.65,0,0,0,5.48,1.09c.28,0,1.24-.13,1.37-.66l.1-.42,1.6.14h.08s0-.1,0-.22c-.17-2.85-.43-5.36-2-7.16-.14-.16-.3-.32-.45-.48a7.72,7.72,0,0,1-.75-.85,8.05,8.05,0,0,1-1.15-2.9c-.09-.34-.17-.68-.27-1a14.38,14.38,0,0,0-.8-1.95c-.53-1-1.17-2-1.79-3-.44-.69-.88-1.38-1.29-2.09a15.73,15.73,0,0,1-1.28-2.76,11.37,11.37,0,0,1-.33-1.34l0-.1a6.41,6.41,0,0,0-.21-.67,4,4,0,0,1-.15-.45c-.11-.34-.21-.69-.31-1-.19-.7-.36-1.4-.52-2.1a33.25,33.25,0,0,1-.67-4.28,31.93,31.93,0,0,1-.1-4.38c0-.2,0-.39,0-.59a11.45,11.45,0,0,1,.05-1.17,17.66,17.66,0,0,1,.32-1.8c.21-.93.48-1.86.75-2.76l.31-1.08c.61-2.12,1.17-4.38,1.77-7.13.26-1.2.51-2.4.75-3.61l.36-1.8c.08-.39.19-.75.29-1.12s.18-.6.25-.91a18,18,0,0,1,1.24-3.38c.14-.3.27-.61.4-.91l0-.12.1-.08a1.26,1.26,0,0,1,1.28-.12,3,3,0,0,1,.69.48l.08.07a7.31,7.31,0,0,0,1.23.82,5.75,5.75,0,0,0,.8.36,8,8,0,0,1,.93.45,19.41,19.41,0,0,0,2,1l.68.32,2.31,1.08c2.12,1,4.3,1.91,6.46,2.79l1.87.74.26.1a4.22,4.22,0,0,1,.72.31l.22.13.17.11a4.42,4.42,0,0,0,.86.24c.22,0,.43.09.64.15a31.41,31.41,0,0,1,3.2,1.17c.44.18.89.37,1.33.57a31.64,31.64,0,0,0,10,2.84c2.4.39,4.87.79,7.3,1.09,1.31.17,2.51.29,3.67.39l.6.05a26.2,26.2,0,0,0,2.92.15h.41c2.36-.05,4.8-.1,7.21-.3a41.46,41.46,0,0,0,7.06-1.16,3.29,3.29,0,0,1,.66-.08c.13,0,.26,0,.39,0l1.42-.28,7.87-1.59,0,.56c.06.72.16,2,.15,2.12a15.58,15.58,0,0,1-.3,2.27l-1.49,8.23c-.15.81-.45,2.14-.67,3,0,.15-.06.28-.08.42a7.06,7.06,0,0,1-.37,1.29c-.21.56-.43,1.11-.65,1.66-.45,1.15-.91,2.29-1.38,3.44s-.95,2.28-1.44,3.42l-.75,1.71-.29.72c-.1.26-.2.52-.31.78s-.23.62-.34.93-.14.45-.22.68l-.59,1.61a4.4,4.4,0,0,0-.35,3.21,4.46,4.46,0,0,0,1,1.23,5,5,0,0,1,1.23,1.5,5.08,5.08,0,0,1-.06,3.58,6.5,6.5,0,0,0-.34,2.32c0,.13,0,.16,0,.17a1.1,1.1,0,0,0,.32.21,2.73,2.73,0,0,1,.48.3,1.53,1.53,0,0,0,.44.24c.51.2,1,.38,1.56.53a18.93,18.93,0,0,0,3.24.63,18.31,18.31,0,0,0,3.55,0c.59,0,1.19-.14,1.78-.25h0s0-.11,0-.16l0-.18a7.28,7.28,0,0,0-.11-.88,14.8,14.8,0,0,0-1-3.25L350,444c-.3-.67-.6-1.34-.86-2-.13-.33-.24-.68-.35-1s-.12-.4-.19-.6a.64.64,0,0,0-.1-.16,1.43,1.43,0,0,1-.14-.2,8.84,8.84,0,0,1-1.12-3.89c-.19-2.7.72-5.29,1.75-7.93a40,40,0,0,1,2.77-6c.34-.57.71-1.13,1.07-1.68.26-.4.52-.79.77-1.19a30.27,30.27,0,0,0,2-3.78,4.65,4.65,0,0,0,.49-1.74,1.58,1.58,0,0,0-.05-.41,3.4,3.4,0,0,1-.07-.46,5.85,5.85,0,0,1,.39-2.11,14,14,0,0,1,.58-1.47l3-6.35a.7.7,0,0,1,.61-.54l.46,0h0l1.81.06c.2,0,.41,0,.61,0a6.72,6.72,0,0,1,1.81.21,8,8,0,0,1,2.67,1.47c2.47,2,4,4.77,5.55,7.46.7,1.26,1.44,2.56,2.25,3.75a50.11,50.11,0,0,0,5.45,6.36,48.89,48.89,0,0,1,5.79,6.85,31.59,31.59,0,0,1,3.07,6.19c.37,1,.74,2,1.14,3.26l.51,1.64.08.29c0,.17.09.34.15.49l.12.24a2.35,2.35,0,0,1,.19.39c.15.39.29.79.42,1.19l.07.2a24.71,24.71,0,0,1,.8,2.74,7.49,7.49,0,0,0,.24.9,8.66,8.66,0,0,0,.76,1.67q.22.38.48.75a9.09,9.09,0,0,1,1,1.81,8.59,8.59,0,0,1,.41,1.95c.05.36.09.72.17,1.08C397,455.63,398.6,457.51,400.09,459.16ZM360.5,403.41Z" transform="translate(-63.36 -128)"/><path class="cls-7" d="M252.87,391.11a19.51,19.51,0,0,0,1.93,6.3c.16.35.33.7.48,1v0a9.88,9.88,0,0,1,.64,2.26,8.33,8.33,0,0,1,.08.86c0,.2,0,.41,0,.61a12.18,12.18,0,0,1-.13,1.23c0,.2-.05.4-.08.6l-.38,2.68a7.78,7.78,0,0,1-.22,1.17,5.65,5.65,0,0,1-.59,1.3,6.38,6.38,0,0,0-.32.57,3.24,3.24,0,0,0-.13.33.37.37,0,0,1,0,.11q-.14.27-.24.54c0,.1-.08.19-.11.28a.74.74,0,0,0,0,.14.09.09,0,0,0,0,.05c0,.12-.09.24-.13.37s0,.13-.07.2a11.34,11.34,0,0,0-.53,3.62,2.5,2.5,0,0,0,.07.67,3.1,3.1,0,0,0,.23.6l1.39,3.05" transform="translate(-63.36 -128)"/><path class="cls-8" d="M254.19,419.94l-1.39-3.05a3.68,3.68,0,0,1-.26-.69,3,3,0,0,1-.08-.78,11.35,11.35,0,0,1,.56-3.79l.12-.36a1.46,1.46,0,0,0,.07-.19.59.59,0,0,1,0-.2c.05-.11.08-.21.12-.31s.17-.39.26-.58.09-.23.13-.34a5.78,5.78,0,0,1,.29-.53l.1-.17a5,5,0,0,0,.54-1.19,9.72,9.72,0,0,0,.21-1.1l.46-3.27c0-.4.1-.8.12-1.2,0-.19,0-.38,0-.58a6.65,6.65,0,0,0-.08-.78,9.27,9.27,0,0,0-.6-2.15c-.12-.3-.25-.57-.38-.84l-.11-.22a19.72,19.72,0,0,1-2-6.46l1-.1a18.55,18.55,0,0,0,1.88,6.13l.1.22c.14.29.27.57.39.86a10.32,10.32,0,0,1,.68,2.41,8.2,8.2,0,0,1,.09.92c0,.22,0,.44,0,.65,0,.43-.07.85-.13,1.27l-.46,3.28a9.66,9.66,0,0,1-.24,1.24,6.58,6.58,0,0,1-.63,1.41l-.12.19a2.58,2.58,0,0,0-.18.32l0,.11a1,1,0,0,0-.07.15,1.17,1.17,0,0,1-.08.21c-.08.17-.16.34-.23.51s-.07.18-.1.26l0,.15-.09.27-.11.32a10.71,10.71,0,0,0-.51,3.46,2.33,2.33,0,0,0,0,.56,3.86,3.86,0,0,0,.2.51l1.39,3Z" transform="translate(-63.36 -128)"/><polyline class="cls-7" points="297.12 274.91 292.93 275.1 289.08 275.25 285.68 275.38 283.6 275.64"/><polygon class="cls-8" points="283.66 276.13 283.54 275.14 285.62 274.88 297.1 274.41 297.14 275.41 285.7 275.88 283.66 276.13"/><path class="cls-7" d="M274.94,387.71l-2.5,3.83C273.32,390.21,274.07,389.05,274.94,387.71Z" transform="translate(-63.36 -128)"/><polygon class="cls-8" points="209.5 263.82 208.66 263.27 208.66 263.27 211.16 259.44 212 259.99 212 259.99 209.5 263.82"/><polyline class="cls-7" points="361.18 196.74 362.99 195.8 370.79 191.92"/><polygon class="cls-8" points="361.41 197.18 360.94 196.29 362.76 195.35 370.57 191.47 371.01 192.36 361.41 197.18"/><path class="cls-7" d="M457.75,327.9l-3.81-.33-4.19-1-3.83-1.29-1.39-.28a3.46,3.46,0,0,0-1.63.06l-2,.56" transform="translate(-63.36 -128)"/><path class="cls-8" d="M457.7,328.4l-3.8-.33-4.27-1-3.87-1.3-1.33-.26a3.11,3.11,0,0,0-1.39.05l-2,.56-.28-1,2-.56a3.9,3.9,0,0,1,1.86-.07l1.39.28,3.89,1.3,4.15,1,3.73.33Z" transform="translate(-63.36 -128)"/><path class="cls-7" d="M458.89,332.82h-.11a10,10,0,0,0-2.55.43l-1.45.46-.14,0-3.37.78-.16,0-2.87.92a2,2,0,0,1-.54.1l-2.43.09a2.07,2.07,0,0,1-.89-.16l-1.2-.52a1.91,1.91,0,0,1-.28-.15l-.24-.15a2.05,2.05,0,0,0-1.82-.18l-.46.18" transform="translate(-63.36 -128)"/><path class="cls-8" d="M445.19,336.19a2.67,2.67,0,0,1-1-.2l-1.19-.52a2,2,0,0,1-.35-.19l-.24-.15A1.53,1.53,0,0,0,441,335l-.46.17-.36-.93.46-.18a2.56,2.56,0,0,1,2.27.23l.24.15.21.11,1.2.52a1.53,1.53,0,0,0,.67.12l2.43-.09a1.85,1.85,0,0,0,.41-.07l2.87-.92.2-.06,3.47-.81,1.45-.45a10.18,10.18,0,0,1,2.68-.46h.11l0,1h-.11a9.44,9.44,0,0,0-2.42.41l-1.45.45-.18.05-3.37.78-.11,0-2.87.92a2.62,2.62,0,0,1-.68.12l-2.43.09Z" transform="translate(-63.36 -128)"/><path class="cls-7" d="M272.44,391.54l1.4-2.54a12.41,12.41,0,0,1,2.77-3.43l2.77-2.41" transform="translate(-63.36 -128)"/><path class="cls-8" d="M272.88,391.78l-.87-.48,1.39-2.54a12.75,12.75,0,0,1,2.88-3.57l2.77-2.41.66.75-2.77,2.41a11.93,11.93,0,0,0-2.66,3.3Z" transform="translate(-63.36 -128)"/><path class="cls-7" d="M365.5,403.32c-2.19-.71-2.29-2-3.52-4a5.86,5.86,0,0,1-.67-1.29c-.64-1.93.57-4.08,1.26-5.82" transform="translate(-63.36 -128)"/><path class="cls-8" d="M365.34,403.79a4.74,4.74,0,0,1-3-2.88c-.21-.39-.44-.82-.73-1.29a6,6,0,0,1-.72-1.4c-.6-1.8.2-3.66.91-5.29.12-.3.25-.59.36-.87l.93.37c-.12.29-.24.59-.38.89-.63,1.48-1.35,3.15-.87,4.58a5.32,5.32,0,0,0,.61,1.18c.31.5.56.95.77,1.37a3.84,3.84,0,0,0,2.48,2.39Z" transform="translate(-63.36 -128)"/><path class="cls-7" d="M462.5,362.45l-.21.06c-.73.21-1.32.54-2-.51l-3-2.88" transform="translate(-63.36 -128)"/><path class="cls-8" d="M461.34,363.23a1.78,1.78,0,0,1-1.5-1l-2.91-2.8.7-.72,3,2.88c.5.71.72.64,1.32.46l.44-.13.28,1-.43.13A2.92,2.92,0,0,1,461.34,363.23Z" transform="translate(-63.36 -128)"/></g><g id="Text"><path class="cls-8" d="M268.23,549.55c-1.25-.75-2.63-2.13-2.63-2.5s-.12-.5-.37-.5-.38-.25-.5-.63a9.77,9.77,0,0,0-.75-1.62c-.75-1-1.25-3.25-1.25-6.63,0-1,.12-2.25.25-3.62v-.38l.37-5a12.34,12.34,0,0,1,.63-3.12.48.48,0,0,0,.12-.38s1.88-6.75,1.88-7c0-1.12,3.37-4.5,4.62-5h2.13c1.12,0,1.25.13,1.37.75a2.7,2.7,0,0,1,.13,1.13,44.81,44.81,0,0,1-1.25,8.5,109,109,0,0,0-2.88,17,24.37,24.37,0,0,0-.12,2.62,5.65,5.65,0,0,0,.37,2,7.54,7.54,0,0,0,1,1.5c.13,0,.25.13.5.13a6.76,6.76,0,0,0,1.38-.25c1.25-.25,2-.75,3.5-2.13l2.75-2.25a6.43,6.43,0,0,0,1.75-2.37,14.5,14.5,0,0,1,1.75-2.88,3.87,3.87,0,0,0,.75-1.37,2.86,2.86,0,0,1,.62-1.25,2.33,2.33,0,0,0,.63-1.25,13.1,13.1,0,0,1,2.12-3.5,7.68,7.68,0,0,0,1.38-2.13,4.67,4.67,0,0,1,1.25-1.87c.25,0,1-1.25,1-1.63a1.31,1.31,0,0,1,1.12-.62,1,1,0,0,1,1.13,1,.92.92,0,0,1-.13.5l-.62,1.37-1.13,2a15.44,15.44,0,0,1-1.25,2.13c-.25.12-.5.62-.87,1.12-.88,2.13-1.5,3.13-2,3.5a5.86,5.86,0,0,0-1,2c-1,3.38-4.25,7.88-6,8.5a2.21,2.21,0,0,0-1,.88c-.13.5-1.13,1.12-2.5,1.62a18.68,18.68,0,0,0-3,1.63,3.73,3.73,0,0,1-2.5.62A5,5,0,0,1,268.23,549.55Zm5.87-50.75a2.89,2.89,0,0,1-1.87-2.63,4.23,4.23,0,0,1,2.5-3.37,7.82,7.82,0,0,1,2.87-.63,2.27,2.27,0,0,1,1.63.5,2.45,2.45,0,0,1,.25,1,7.35,7.35,0,0,1-1.75,4.25,4.16,4.16,0,0,1-2.63,1.13A2.45,2.45,0,0,1,274.1,498.8Z" transform="translate(-63.36 -128)"/><path class="cls-8" d="M298,552.05c-1.13-.25-1.63-.5-2-1.13a1.49,1.49,0,0,1-.25-1,19,19,0,0,1,1-4.37,17.27,17.27,0,0,0,.75-3.38l.87-3.12a7.19,7.19,0,0,0,.5-1.63,8,8,0,0,1,.63-2,15.36,15.36,0,0,0,.75-2.25c0-.37.12-.62,1.12-3.25.38-1,.63-2.12,1-3.12l1.38-3.88a12.63,12.63,0,0,0,.62-2.37c.13-.88.38-1.75.5-2.63,0-.37.13-.62.13-1,0-1.62-.5-3.37-1-3.37-3.5,0-7.38,4.62-8.25,7.12,0-.12-3.5,5.38-3.5,5.5-.13.38-.5.75-.63,1.13a.88.88,0,0,1-.75.37,1.2,1.2,0,0,1-1.12-1.12v-.25l.25-.5.87-2c.38-1.25,4.63-7.75,8.25-10.25l1.38-.75a12.38,12.38,0,0,1,4.75-1.13A4.29,4.29,0,0,1,309,513.3a8.24,8.24,0,0,1,.87,2.5,4.52,4.52,0,0,1,.25,1.87,18.46,18.46,0,0,1-.12,2.38,16.23,16.23,0,0,1-.5,3.12c-.13.13-.38,1.13-.88,2.25l-.87,2.75c-2.38,7.25-2.5,7.75-2.5,8.13-.25.75-.63,1.62-.63,1.75a7.12,7.12,0,0,0-.5,1.25v.5c0,.25.13.37.25.37s.5-.25.75-.87a3.73,3.73,0,0,1,.88-1.25c-.25,0,7.37-11.13,7.87-11.75a26.67,26.67,0,0,1,2.75-3.88c.88-1,4.38-5.12,5-5.5a2.25,2.25,0,0,0,1.13-.87c0-.25.87-.75,2-1.25a9.27,9.27,0,0,1,3.87-1,4.48,4.48,0,0,1,4.5,2.75,8.71,8.71,0,0,1,.25,2.12v1.13c-.37,4.37-.75,6.25-1.37,7.37a10.09,10.09,0,0,0-.5,1.5c-.75,2.38-2.13,6.88-2.13,6.75a16.52,16.52,0,0,0-1.12,6.63v1c0,2.12.5,3.75,2.62,3.75,1.75,0,7.5-5.75,8.5-7.75a48.71,48.71,0,0,1,3.63-5.63,7.07,7.07,0,0,0,1.12-2,5,5,0,0,1,1-1.87,1.15,1.15,0,0,0,.38-.63,49,49,0,0,1,2.12-5.37.89.89,0,0,1,.75-.5c.5,0,1.5.5,1.5,1.37a.48.48,0,0,0-.12.38v.37c-1.38,2.75-5.13,10.25-5.88,11.25l-1.25,2.13a15.68,15.68,0,0,1-2,2.75,4.48,4.48,0,0,0-1.25,1.75c0,.25-.62,1-4.5,4.87a5.49,5.49,0,0,1-3.75,1.5,10.67,10.67,0,0,1-6.5-2.62c-1.25-1-1.37-1.25-1.75-3.25,0-.13-.12-.13-.12-.25a7.72,7.72,0,0,1-.25-2.38c0-5.62,1.12-8.75,2.25-11,.62-1.25.87-1.62.87-2a7.55,7.55,0,0,1,.63-2c.25,0,1.12-4.5,1-4.12a20.47,20.47,0,0,0,.62-4.13v-.75c0-1-.12-1.5-.62-1.5a4.69,4.69,0,0,0-2,1.13,9.27,9.27,0,0,1-1.88.87s-2.75,3-2.87,3c-.63.88-2.25,3-2.13,3-1.62,1.38-5,7-8.25,12.5-3.37,5.75-6.5,11.38-6.87,13.63,0,0-1.25,2.87-4.13,2.87Z" transform="translate(-63.36 -128)"/><path class="cls-8" d="M408.47,472.17c0,2.38-.62,5.38-2,9.75-.87,2.75-1,4-1.62,4.63a11.31,11.31,0,0,0-1.75,2.75,4.72,4.72,0,0,1-1.25,1.75,15.25,15.25,0,0,0-2.38,2.75c-1.75,2.62-2.37,2.25-2.37,3.25,0,.5-4.38,5.75-4.5,5.87-.75.25-1.75,2.63-5,5.75A37.38,37.38,0,0,0,383,513.8c0,.25-3.37,9.62-4.25,12.75-.37,1.37-.75,4.62-1.25,7.25a29.32,29.32,0,0,0-.37,4c0,1.62.12,2.75.25,4.37a18.49,18.49,0,0,0,1,4.38c.12.87.5,1.12,1,1.12a1.64,1.64,0,0,0,.75-.12c.5,0,3.25-2.5,4-4a5.63,5.63,0,0,1,1.5-1.5,5.23,5.23,0,0,0,1.37-1.5,48.71,48.71,0,0,1,3.63-5.63,7.07,7.07,0,0,0,1.12-2,5,5,0,0,1,1-1.87,1.15,1.15,0,0,0,.38-.63,49,49,0,0,1,2.12-5.37.89.89,0,0,1,.75-.5c.5,0,1.5.5,1.5,1.37a.48.48,0,0,0-.12.38v.37c-1.38,2.75-5.13,10.25-5.88,11.25l-1.25,2.13a15.68,15.68,0,0,1-2,2.75,4.48,4.48,0,0,0-1.25,1.75c0,.25-.62,1-4.5,4.87a6.92,6.92,0,0,1-3.62,1.13,7.25,7.25,0,0,1-3.5-1.13c-2-1.12-3-4.25-4.25-6.25-.25-.37-.5-1.5-.88-2.12a3.41,3.41,0,0,1-.62-2.25c0-3.63.37-5.5.37-6.25,0-.38-.12-.38-.25-.5s-5.62,7.75-5.5,7.75c-.12.37-.37.5-.5.75l-.75,1.5c-.12.25-5.25,5.25-6.12,5.87-3,1.88-4.88,2.5-6.38,2.5a5.74,5.74,0,0,1-3.12-1c-.63-.12-1.63-2-2.5-4.62a10.62,10.62,0,0,1-1-4.38c0-.5.12-1,.12-1.62.25-2.75.75-4.88.75-7,0-.13.25-.38.25-.63a4.71,4.71,0,0,0,.75-2.12,11.41,11.41,0,0,1,2.13-5.25c1.25-2.75,1.62-3.5,7.12-10a9.53,9.53,0,0,1,4.75-3.25,9.73,9.73,0,0,1,5.75-1.75c2.63,0,5.63,1.62,6.5,4.37a22.51,22.51,0,0,1,1,3.5c0,.75.25,1.13.5,1.13s.5-.25.63-.88l.37-1.5a41.55,41.55,0,0,0,2.5-7.25l.63-2.25a2.54,2.54,0,0,0,.75-1.75,12.87,12.87,0,0,1,1-3.25c.75-2,1.37-4,2.12-6,1.38-3.75,4.63-12.25,5.5-12.25.13,0,.25-.37.25-.75,0-1.25,1.63-3.75,2.13-3.75.12,0,.12-.12.12-.25,0-1.12,4.13-6.87,5.5-7.75a5.11,5.11,0,0,0,1.38-1c0-.5,3.25-2.75,5-2.87.62,0,1.25-.13,1.87-.13C407,466.17,408.47,467.55,408.47,472.17Zm-38,46.5a6.32,6.32,0,0,0-.12-1.62l-.25-1.63c0-.25-.38-.5-.75-1.12a3.28,3.28,0,0,1-.5-1.25,11.07,11.07,0,0,1-1-.88,3.54,3.54,0,0,0-2.13-.87c-1.5,0-1.75.62-3,1.75a9.33,9.33,0,0,0-1.75,2.12,18.76,18.76,0,0,0-1.62,1.88c-.5.87-1.63,2.5-1.63,2.62,0,.5-.5,1-.87,1.38-1.5,1.5-3.63,6.87-4.13,9.62,0,.13-1.75,6.75-1.62,6.75v2.75a24.22,24.22,0,0,0-.38,4.13,4.07,4.07,0,0,0,.63,2.75,1.13,1.13,0,0,0,.87.37c.38,0,.63-.12,1-.12,3.88,0,11.38-10.5,13.88-15a3.43,3.43,0,0,1-1.63.5c-.37,0-.5-.13-.5-.38s.38-.75,1.13-1a2.78,2.78,0,0,0,1.25-1.12l.87-1.5C369.35,527.05,370.47,521.8,370.47,518.67Zm35.63-46a4.44,4.44,0,0,0-1.5-3.62c-.63-.5-1.25-1.13-1.5-1.13-1,0-3.63,3.13-5,5.5l-1.5,2.5c-.25.25-.88,1.5-2.5,5.5l-1.75,4.38c-1,2.62-3.25,8.25-3.88,10.62l-1.62,6.13c-.63,2.12-1.5,3.87-1.5,4.25s.12.62.37.62c.63,0,2.25-1.62,4.13-4.5.37-.62,1.87-1.87,1.87-2s5.5-7.75,5.5-7.62a11.11,11.11,0,0,1,2.75-3.5c1.5-1.25,4-7.38,4-8.13a5.84,5.84,0,0,1,.5-2A22,22,0,0,0,406.1,472.67Z" transform="translate(-63.36 -128)"/><path class="cls-8" d="M396,554.05c-.37,0-3.12-2.75-4-4a14.84,14.84,0,0,1-1.87-5.25c0-.13.12-.25.12-.38a11,11,0,0,0-.37-1.87,5.59,5.59,0,0,0-.13-.63l.75-5.12a12.42,12.42,0,0,1,.63-2.5,1,1,0,0,0,.12-.5,8.74,8.74,0,0,1,1.25-2.38,9.3,9.3,0,0,0,1-2,5.52,5.52,0,0,1,1-2.12l1.63-3a14.41,14.41,0,0,1,1.25-2.25c.25-.25.5-.5.5-.63a3.14,3.14,0,0,1,1-1.5c1-1.12,1.25-1.37,1.25-1.75s4-4.5,4.25-4.62c1.37-1,4.25-3.5,7.75-3.5a7.05,7.05,0,0,1,3.75,1c1.37.75,2.5,2.25,3.37,4.62a5,5,0,0,1,.5,2,3.63,3.63,0,0,1-.25,1,3.44,3.44,0,0,1-.62,1.5l-.38,1.13c-.87,1.87-4.37,5.87-4.75,5.87-2.5,2.25-3,2.25-6.87,4.38-2.5,1.12-3.5,1.5-5.13,1.62l-2.12.13-.63,1.37c-.62,1.25-.75,2.13-1.75,6.88l-.37,1.62a17.61,17.61,0,0,0-.38,3,8,8,0,0,0,.88,3c0,.13.12.13.12.25.88,1.75,2.63,3.25,4.13,3.25a12,12,0,0,0,5.25-1.62c3.62-2,9.25-7.5,10-9a5.63,5.63,0,0,1,1.5-1.5,5.23,5.23,0,0,0,1.37-1.5,48.71,48.71,0,0,1,3.63-5.63,7.07,7.07,0,0,0,1.12-2,5,5,0,0,1,1-1.87,1.15,1.15,0,0,0,.38-.63,49,49,0,0,1,2.12-5.37.89.89,0,0,1,.75-.5c.5,0,1.5.5,1.5,1.37a.48.48,0,0,0-.12.38v.37c-1.38,2.75-5.13,10.25-5.88,11.25L423,538.55a15.68,15.68,0,0,1-2,2.75,6.74,6.74,0,0,0-1.25,1.75,77.51,77.51,0,0,1-8,8.75c-.75.62-1.62,1.12-2.37,1.75a15.52,15.52,0,0,1-3.5,1.62,8.48,8.48,0,0,1-3.88,1C399.85,556.17,397.1,554.05,396,554.05Zm8.13-24.38c.75-.37,1.75-.75,2.12-1,4.38-2.37,5.88-3.37,8.63-7.5a7.71,7.71,0,0,0,1.37-4,4.05,4.05,0,0,0-2-3.62,1.84,1.84,0,0,0-1.12-.25c-2.25,0-4.75,2.75-5.88,4.62A22,22,0,0,1,406,520.3a16.15,16.15,0,0,0-1.37,2.25.67.67,0,0,1-.25.5,6.82,6.82,0,0,0-1.63,3,5.4,5.4,0,0,1-.75,1.62c-1,1.13-.75,2.13-1.25,3.13A11.8,11.8,0,0,0,404.1,529.67Z" transform="translate(-63.36 -128)"/><path class="cls-8" d="M463.47,524.42a.79.79,0,0,0-.12.5l-.13.5c-1.5,3.38-4.75,10.5-5.5,11.5l-1.25,2.13c-.5.87-1.25,2.5-1.75,3.25a10.27,10.27,0,0,0-1.5,2.62c0,.25-1.12,2-3.75,5.88a3.42,3.42,0,0,0-.5.87,8.29,8.29,0,0,1-2.87,2.63c-.25,0-.38.12-.38.25,0,1-2.25,2-4.25,2.12a3.37,3.37,0,0,1-2-.5c-1.25-.62-2.87-2.37-3-3.37a11.49,11.49,0,0,0-.87-2.38,15.8,15.8,0,0,1-1.25-5.25,1.59,1.59,0,0,1,.25-1,.54.54,0,0,0,.12-.37c0-.25-.12-.5-.12-.75s-.13-.38-.13-.75a7.71,7.71,0,0,1,.25-1.25,10.63,10.63,0,0,0,.5-2.75,8.2,8.2,0,0,1,.5-2.63,7.55,7.55,0,0,0,.75-2.25c.25-1.62.63-3,1-3.25a.63.63,0,0,0,.25-.5,21.14,21.14,0,0,1,.63-2.5c1.12-3.37,1.25-3.75,1.25-4.25s0-.62.12-.75a5.47,5.47,0,0,0,.63-2.37c.12-.88.75-1.88.75-3,0-2.13-1.5-1.75-2.5-2.75a18.56,18.56,0,0,0-4.13-1h-.37a34.78,34.78,0,0,1-1.63,5.12,7.19,7.19,0,0,1-.87,2.13c-.13.12-.13.37-.13.75,0,1-1.12,3.37-2,5a4.1,4.1,0,0,1-2,1.12,1.74,1.74,0,0,1-.37-1.12c0-.25,0-.38.12-.5l.63-1.38c1.37-2.62,2.75-9.62,3.12-12.5-.25-.12-.37-.12-.5-.25a3.37,3.37,0,0,1-.62-1.12c0-.13,0-.38-.13-.38-.37,0-1.25-.87-1.5-1.5a2.71,2.71,0,0,0-.37-.87c-.38-.25-.5-1.13-.5-2a2.69,2.69,0,0,1,.25-1.5,3.34,3.34,0,0,0,.25-.88,3.71,3.71,0,0,1,.75-1.37l1.12-1.75a3.37,3.37,0,0,1,2.63-2h.75c.75,0,1.25.12,1.25.25s.12.25.37.25.25.25.25.75a19,19,0,0,1-.5,3.62,20,20,0,0,0-.5,2.88l-.12,1.25a6.23,6.23,0,0,0-.38,1.5c0,.37.13.5.5.75,2.25,1.25,3.75,1.87,4.38,1.87a1.47,1.47,0,0,1,.87.25c0,.13.25.25.5.25a1,1,0,0,1,.88.38,1.07,1.07,0,0,0,.75.37c.25,0,.5.13.5.25a.91.91,0,0,0,.62.25c.63,0,2.38,1.63,3.13,3l.75,1.13v2.62a19.17,19.17,0,0,1-.75,6.25l-.5,2.13a5.51,5.51,0,0,1-.5,1.5L444,531.3l-1.87,6.87a8.38,8.38,0,0,0-.75,2.5c0,.25,0,.38.12.5a8.07,8.07,0,0,1-.25,1.13c-.37.75-.5,1-.5,6.62,0,3,.13,3.75,1.13,4.63.25.12.37.25.62.25a3.22,3.22,0,0,0,1.25-.5c.88-.63,1.75-.88,1.75-1a.27.27,0,0,1,.25-.25c.38,0,1.38-1.25,2.38-2.88-.13,0,6.87-10.87,8.5-15.75.12-.37.87-1.25,1.12-2a5,5,0,0,1,1-1.87,1.15,1.15,0,0,0,.38-.63,49,49,0,0,1,2.12-5.37.89.89,0,0,1,.75-.5C462.47,523.05,463.47,523.55,463.47,524.42Z" transform="translate(-63.36 -128)"/><path class="cls-8" d="M492.47,523.42c0,1.13-.62,3.25-5.25,7.75-2.5,2.38-9.12,3.88-11.5,4.38a1.32,1.32,0,0,0-.75.25,15.31,15.31,0,0,1-.75,4.62c-.75,2.63-1.25,3.63-1.5,3.75a.67.67,0,0,0-.25.5,15.16,15.16,0,0,1-2.25,3.13c-.25,0-.37,0-.37.12a.27.27,0,0,1-.25.25c-.13,0-.38.13-.38.25s0,.38-.25.5l-.5.63a2.52,2.52,0,0,1-1.12.87,12.21,12.21,0,0,1-6.5,2.13,4,4,0,0,1-3.13-1.13,2.68,2.68,0,0,1-.87-.75l-.63-.62a.39.39,0,0,1-.37-.38c0-.25-.25-.5-.5-.75a4.75,4.75,0,0,1-1.25-2.37l-.38-2.38a7.2,7.2,0,0,1-.37-1.75,1.91,1.91,0,0,0-.25-.5c-.13,0-.13,0-.13-.12a.46.46,0,0,1,.13-.38,1.4,1.4,0,0,0,.12-.62c-.25-.13-.25-.75-.25-1.13s0-.75.25-.75a2.25,2.25,0,0,0,.88-.25,8.34,8.34,0,0,1,2.12-.25,12.26,12.26,0,0,0,2.5-.5,4.05,4.05,0,0,1,1.25-.37,2.44,2.44,0,0,0,.88-.25,3.05,3.05,0,0,1,1.25-.25c.37,0,.87-.25.87-.38a1.1,1.1,0,0,1,.75-.25l.75-.12a4.86,4.86,0,0,1,1.5-.5l1.38-.63a5.36,5.36,0,0,1,1.87-.37c.13,0,.13-.13.13-.5a7.94,7.94,0,0,0-.13-1.75,17.72,17.72,0,0,1-.62-2.38,5.63,5.63,0,0,0-.63-2c-.12,0-.37-.25-.37-.62l-.38-.75a1.66,1.66,0,0,1-.25-1,4,4,0,0,0-.62-1.5,1.94,1.94,0,0,1-.5-.75c0-.5-.38-1.38-.63-1.38s-.12-.25-.12-.5a1,1,0,0,0-.25-.62,54,54,0,0,1-2.13,5,2.78,2.78,0,0,1-1.87,1.12h-.13a1.74,1.74,0,0,1-.37-1.12c0-.25,0-.38.12-.5l.63-1.38a48.93,48.93,0,0,0,3-8.37v-2.75a5.49,5.49,0,0,1,.12-1.88,2,2,0,0,0,.25-1.12,7.7,7.7,0,0,1,.75-2.75c.13,0,.25-.25.38-.5.12-.75.62-1.38,1-1.38.12,0,.37-.25.62-.5s.63-.5.88-.5a.79.79,0,0,0,.5-.12c0-.13.37-.13.5-.13,1,.25,1.37.63,1.5,1.25a2.91,2.91,0,0,1,.12,1.13,8,8,0,0,1-.62,3.25,1.75,1.75,0,0,0-.25,1.12c0,.88.12,1.88.12,2.75a8.13,8.13,0,0,0,.25,2.5c.13,0,.25.63.38,1.25l.37,2a3.34,3.34,0,0,1,.38,1.25,1,1,0,0,0,.25.63c.12,0,.25.25.25.5a6,6,0,0,0,.37,1.12,3,3,0,0,1,.25.88c0,.25.13.5.25.5s.38.62.63,1.12a2.79,2.79,0,0,0,.37,1.13c.13,0,.25.5.25,1l.38,1.37a4,4,0,0,1,.25,1.38c.25,1.5.25,2.5.37,3.25,2.5-.13,7-1.75,10.38-4a13.62,13.62,0,0,0,5.12-6.5c.38-1.13.63-1.13,1.13-1.13S492.47,522.3,492.47,523.42ZM469.85,538.3a5.92,5.92,0,0,0-.13-1.75c-1.25.5-2.75.5-3.37,1a2.87,2.87,0,0,1-1.13.5,17.8,17.8,0,0,0-3.25,1,21.9,21.9,0,0,1-3.62,1,5.55,5.55,0,0,0-2.25,1.37c-.13.13-.25.25-.38.25a28.41,28.41,0,0,1,.75,3.75,6.61,6.61,0,0,0,6,4.25,5.22,5.22,0,0,0,2-.5c.13-.12,3.75-3.75,3.63-3.75.25,0,1.12-2.62,1.12-3.25l.25-1C469.6,541.17,469.72,540.3,469.85,538.3Z" transform="translate(-63.36 -128)"/><path class="cls-8" d="M253.24,575.12l-1.8-.6a11.82,11.82,0,0,1-5.7-3.9c-2-2.55-3.9-5.55-3.75-6l-.75-2.4a5.26,5.26,0,0,1-.45-2.4L240,557c-.15-1.2-.45-2.7-.45-3.15,0-.6-.45-1.05-.45-1.19s.15-.31.15-.46l-.3-1.79c-.3-1.66-.6-8.55-.6-10.5-.15-2.85-.15-5.55-.3-8.4v-1.8c0-1-.6-1.8-.6-3.6-.45-1.65-1.35-6-2.25-6.9-1.2-1.35-3.9-4.5-4.35-4.5l-1.65-.9a4.74,4.74,0,0,0-2.85-1,4.46,4.46,0,0,0-2.25.75l-1.35.9c-.75,0-5.55,3.45-5.85,3.9l-.9,1.35c-1,1.35-.45,2-1.2,2.4l-1.05.75c-.6.3-.9.75-1.2,1.8-1.5,5.1-5.7,13.5-8.25,16.5l-.9,1.64a11.81,11.81,0,0,1-2.7,3.3c-.75.75-1.35,1.65-2.1,2.4a11.56,11.56,0,0,1-2.1,2.1,1.28,1.28,0,0,0-.9.45c-.75.75-3.45,2.55-4,2.55a.67.67,0,0,0-.6.45c0,.45-4.5,2.7-5.55,2.7a3.64,3.64,0,0,0-1.65.6,4.4,4.4,0,0,1-2.55.9c-.9,0-1.65,0-1.8.3,0,.15-.3.15-.45.15a1.1,1.1,0,0,1-.9-.3,3.35,3.35,0,0,0-2-.45c-.75,0-3-1.5-4.35-2.7-2.55-2.25-3-4.35-3-9,0-2.09.45-3.59,2-7.64a31.25,31.25,0,0,1,3.45-6.45,1.65,1.65,0,0,0,.45-.9c0-.3.45-.6.6-.75l1-1.35c.3-.3.9-1.05,1.65-1.05a.69.69,0,0,1,.6.75,2.39,2.39,0,0,1-.45,1.2c-1.35,1.65-3.15,6.6-4.2,9.44a17.39,17.39,0,0,0-1.2,6.75V548c.15,1.95,1.65,4.5,2.4,4.5a.33.33,0,0,1,.3.3c0,.6,4.35,1.65,6.6,1.65.6,0,1,0,1.2-.15l1.5-.45c1.5-.3,4.8-2.4,7.8-5.4.45-.6.6-.9,1-.9a9.33,9.33,0,0,0,1.2-1.5l2.4-3.74a12.81,12.81,0,0,0,1.65-3,1.73,1.73,0,0,1,.6-1.5,4.83,4.83,0,0,0,1.2-1.95c.6-2.7,3.3-9.45,3.75-11.4l1.35-3.9c.45-1.35,1.5-3.3,1.5-4.8a12.43,12.43,0,0,1,1.2-4.2l.9-2.7c.3-2.55,1.8-7.2,2.7-10.5,1.5-5.7,2.4-6.9,2.4-8.55,0-.75.15-1.65.3-1.65a4.06,4.06,0,0,0,1.05-2.1c.9-3.45,3.6-11.1,4.35-12.15a10.38,10.38,0,0,0,1.95-4.2c0-.3,0-.75-.75-.75-3.3.45-6.6,1.05-9.9,1.5a23.22,23.22,0,0,1-3.3.15,3.37,3.37,0,0,1-1.5-.15.55.55,0,0,0-.45-.15l-1.2.15c-.3,0-.75.15-1.2.15a6.38,6.38,0,0,1-1.65-.3,6.6,6.6,0,0,0-1.5-.3.66.66,0,0,0-.45.15c-.3.3-1.65.45-4.8.9-2,.3-3.15.6-3.45.9a14.94,14.94,0,0,1-1.65.6,4.12,4.12,0,0,0-1.8,1.05,1.81,1.81,0,0,1-.9,1.35c-1,.6-1.2,1.35-1.5,3.9l-.45,3.15.9,1c.75.9,3.6,2,5.85,2,.45,0,.9-.15,1.8-.15.3,0,1.05.15,1.05.9,0,.15-.15.15-1.2.45l-2.1.6a14.39,14.39,0,0,1-2.25.45,2.93,2.93,0,0,1-1,.15,1.36,1.36,0,0,1-1.05-.45.83.83,0,0,0-.75-.3H186c-1,0-3.3-1.2-3.3-1.95,0-.15-.15-.3-.45-.3s-.45-.3-.45-1.05a30.77,30.77,0,0,1,.45-4.2c.3-3,2.1-6.75,3.45-6.75.3,0,.75-.3.75-.45,0-.9,6-2.85,9.9-3.6,1.5,0,3.15.15,4.65.15,1.8,0,3.75-.15,5.55-.15,4.95-.15,9.6-.15,10.5-.45,1.35-.15,2.55-.45,3.9-.6a17.68,17.68,0,0,0,2.85-.6,11.94,11.94,0,0,1,4.5-1.35c.3,0,.75,0,.75-.15a.4.4,0,0,1,.45-.45,1.91,1.91,0,0,1,1.05.6,1.12,1.12,0,0,1,.15.75,19,19,0,0,1-1.8,5.85,5.91,5.91,0,0,0-.75,2.1c-.45,1.2-.75,2.55-1.2,3.75a44.86,44.86,0,0,0-2.25,6.3c-.3,1.65-.75,3.15-1.05,4.8-.3.6-.45,1.8-.9,3-.15.6-1,1.8-1,2.55v.6a7.36,7.36,0,0,1-.45,1.8c-.6,1.35-1.2,3.9-2.1,6.75l-.9,3.15a11.16,11.16,0,0,0-.45,2.25l-1.35,3.9a7.94,7.94,0,0,0-.9,2,.32.32,0,0,0,.3.3,2.47,2.47,0,0,0,1.35-.75,4.47,4.47,0,0,1,1.65-1c.45-.15.9-.45.9-.6s.3-.3.6-.3a.67.67,0,0,0,.6-.45,4.32,4.32,0,0,1,1.95-2.25c1.05-.75,2.25-1.65,2.1-1.8s.3-.45.6-.45.6-.3.9-.6l2.1-2.1c1.65-1.65,3.9-2.55,5.85-6.45a3.29,3.29,0,0,1,1.35-1.5c.15,0,.6-.15.6-.45a.67.67,0,0,1,.45-.6c.15,0,.6-.6,1.05-1.35a4.21,4.21,0,0,1,1.5-1.8c.6-.45,1.05-.9,1.05-1.35a.4.4,0,0,1,.45-.45,6.48,6.48,0,0,0,1.5-1.5l2.55-2.7a24.91,24.91,0,0,1,1.95-2.1l1.2-1a10.45,10.45,0,0,1,1.8-2.1c1.5-1.5,2.85-3.15,4.35-4.65a16.38,16.38,0,0,1,3.15-2.85.48.48,0,0,0,.45-.45c0-.45,1.65-2.1,4.95-4.35l2.85-1.95a7.35,7.35,0,0,1,4.2-1.35,1.14,1.14,0,0,0,.6-.3c.3-.3.9-.3,1.65-.3,1.8,0,4.5.45,5.4,1.35,1.8,1.8,2.4,2.55,2.85,3.75l.75,1.35c.15,0,.15.45.15,1.05,0,1.8-.6,5.25-1.05,5.25l-1.5,1.65a5.14,5.14,0,0,1-1.35,1.35.67.67,0,0,0-.45.6c0,.75-1.65,1.5-2.7,1.5a1.31,1.31,0,0,0-1.2.6,1.88,1.88,0,0,1-1.65.9,2,2,0,0,1-1.8-.9,1.13,1.13,0,0,1-.15-.6c0-.45.3-.75.9-.75.75,0,3-1.8,3-2.4a1.29,1.29,0,0,1,.9-1.05c.75-.3,1.8-4.2,1.8-6.45a3,3,0,0,0-.3-1.35l-.75-1.35c0-.6-1.05-1.5-1.2-1.5a9.43,9.43,0,0,0-2.1-.75c-1.5,0-5.25,1.95-8.55,4.5l-3.45,2.7c-.15,0-.3.3-.3.45a6,6,0,0,1-1.5,1.95c-3,2.55-3.45,3.15-3.45,3.45l-1.65,1.8a7.76,7.76,0,0,0-1.95,1.8c0,.15-.45.3-.9.6a3.87,3.87,0,0,0-1.35,1.35l-.75,1.2-2.7,3.15a4.23,4.23,0,0,1-1.35,1.8,7.35,7.35,0,0,0-1.95,2.1c-.45,1.35-3.45,4.2-4.05,4.2-.3,0-.45.6-.45.75,0,.45-.6,1-1.8,2.1-.9.75-1.65,1.65-1.65,2.1s-.15.6-.3.6c-.3,0-1.05.75-2.25,2-.9.9-1.8,1.95-2.1,1.95s-1.65,1.35-1.65,1.95c0,.15.6.3,1,.3s.45,0,.6-.15a1.12,1.12,0,0,1,.75-.15,7.28,7.28,0,0,1,3,.9l2.4.45c.45,0,.9.3.75.45s.45.3,1.2.45c.6.15,1.2.45,1,.6s.3.6.9,1l1.8,1.35a4.11,4.11,0,0,0,1,.6c.15,0,.15.3.15.6a1.07,1.07,0,0,0,.45.9c.3.15.45.9.75,1.65l1,3.3c1.05,3.15.9,8.25,1.35,13.2.15,1.2.15,2.54.3,3.75a37.82,37.82,0,0,0,.3,4.79c1.2,8.55,1.95,16.2,2.4,17.1l.3.9a3.39,3.39,0,0,0,.75,1.5c.15.45.6,1.35.6,1.5a1.51,1.51,0,0,0-.15.45c0,.6.75,1.8,2,3.15l.9,1.65c-.15.6,3.15,1.65,4.95,1.65,3.3,0,6.3-2.1,9.15-5.7,1.05-1.35,1.35-2.25,1.8-4.8l.6-3.75c0-.15.3-.3.75-.3a2.73,2.73,0,0,1,1.65.6,1.17,1.17,0,0,1,.45,1,11.08,11.08,0,0,1-.3,1.8c-.45,2.25-2.25,6.3-3,6.9l-1.35,1.5a29,29,0,0,1-3.15,2.55l-2,1.65a10.55,10.55,0,0,1-1.5,1,17.88,17.88,0,0,1-6,1A7,7,0,0,1,253.24,575.12Z" transform="translate(-63.36 -128)"/><path class="cls-5" d="M265.93,550.59c-1.25-.75-2.63-2.13-2.63-2.5s-.12-.5-.37-.5-.38-.25-.5-.63a9.77,9.77,0,0,0-.75-1.62c-.75-1-1.25-3.25-1.25-6.63,0-1,.12-2.25.25-3.62v-.38l.37-5a12.34,12.34,0,0,1,.63-3.12.48.48,0,0,0,.12-.38s1.88-6.75,1.88-7c0-1.12,3.37-4.5,4.62-5h2.13c1.12,0,1.25.13,1.37.75a2.7,2.7,0,0,1,.13,1.13,44.81,44.81,0,0,1-1.25,8.5,109,109,0,0,0-2.88,17,24.37,24.37,0,0,0-.12,2.62,5.65,5.65,0,0,0,.37,2,7.54,7.54,0,0,0,1,1.5c.13,0,.25.13.5.13a6.76,6.76,0,0,0,1.38-.25c1.25-.25,2-.75,3.5-2.13l2.75-2.25a6.43,6.43,0,0,0,1.75-2.37,14.5,14.5,0,0,1,1.75-2.88,3.87,3.87,0,0,0,.75-1.37,2.86,2.86,0,0,1,.62-1.25,2.33,2.33,0,0,0,.63-1.25,13.1,13.1,0,0,1,2.12-3.5,7.68,7.68,0,0,0,1.38-2.13,4.67,4.67,0,0,1,1.25-1.87c.25,0,1-1.25,1-1.63a1.31,1.31,0,0,1,1.12-.62,1,1,0,0,1,1.13,1,.92.92,0,0,1-.13.5l-.62,1.37-1.13,2a15.44,15.44,0,0,1-1.25,2.13c-.25.12-.5.62-.87,1.12-.88,2.13-1.5,3.13-2,3.5a5.86,5.86,0,0,0-1,2c-1,3.38-4.25,7.88-6,8.5a2.21,2.21,0,0,0-1,.88c-.13.5-1.13,1.12-2.5,1.62a18.68,18.68,0,0,0-3,1.63,3.73,3.73,0,0,1-2.5.62A5,5,0,0,1,265.93,550.59Zm5.87-50.75a2.89,2.89,0,0,1-1.87-2.63,4.23,4.23,0,0,1,2.5-3.37,7.82,7.82,0,0,1,2.87-.63,2.27,2.27,0,0,1,1.63.5,2.45,2.45,0,0,1,.25,1,7.35,7.35,0,0,1-1.75,4.25,4.16,4.16,0,0,1-2.63,1.13A2.45,2.45,0,0,1,271.8,499.84Z" transform="translate(-63.36 -128)"/><path class="cls-5" d="M295.68,553.09c-1.13-.25-1.63-.5-2-1.13a1.49,1.49,0,0,1-.25-1,19,19,0,0,1,1-4.37,17.27,17.27,0,0,0,.75-3.38l.87-3.12a7.19,7.19,0,0,0,.5-1.63,8,8,0,0,1,.63-2,15.36,15.36,0,0,0,.75-2.25c0-.37.12-.62,1.12-3.25.38-1,.63-2.12,1-3.12l1.38-3.88a12.63,12.63,0,0,0,.62-2.37c.13-.88.38-1.75.5-2.63,0-.37.13-.62.13-1,0-1.62-.5-3.37-1-3.37-3.5,0-7.38,4.62-8.25,7.12,0-.12-3.5,5.38-3.5,5.5-.13.38-.5.75-.63,1.13a.88.88,0,0,1-.75.37,1.2,1.2,0,0,1-1.12-1.12v-.25l.25-.5.87-2c.38-1.25,4.63-7.75,8.25-10.25l1.38-.75a12.38,12.38,0,0,1,4.75-1.13,4.29,4.29,0,0,1,3.75,1.63,8.24,8.24,0,0,1,.87,2.5,4.52,4.52,0,0,1,.25,1.87,18.46,18.46,0,0,1-.12,2.38,16.23,16.23,0,0,1-.5,3.12c-.13.13-.38,1.13-.88,2.25l-.87,2.75c-2.38,7.25-2.5,7.75-2.5,8.13-.25.75-.63,1.62-.63,1.75a7.12,7.12,0,0,0-.5,1.25v.5c0,.25.13.37.25.37s.5-.25.75-.87a3.73,3.73,0,0,1,.88-1.25c-.25,0,7.37-11.13,7.87-11.75a26.67,26.67,0,0,1,2.75-3.88c.88-1,4.38-5.12,5-5.5a2.25,2.25,0,0,0,1.13-.87c0-.25.87-.75,2-1.25a9.27,9.27,0,0,1,3.87-1,4.48,4.48,0,0,1,4.5,2.75,8.71,8.71,0,0,1,.25,2.12v1.13c-.37,4.37-.75,6.25-1.37,7.37a10.09,10.09,0,0,0-.5,1.5c-.75,2.38-2.13,6.88-2.13,6.75a16.52,16.52,0,0,0-1.12,6.63v1c0,2.12.5,3.75,2.62,3.75,1.75,0,7.5-5.75,8.5-7.75a48.71,48.71,0,0,1,3.63-5.63,7.07,7.07,0,0,0,1.12-2,5,5,0,0,1,1-1.87,1.15,1.15,0,0,0,.38-.63,49,49,0,0,1,2.12-5.37.89.89,0,0,1,.75-.5c.5,0,1.5.5,1.5,1.37a.48.48,0,0,0-.12.38v.37c-1.38,2.75-5.13,10.25-5.88,11.25l-1.25,2.13a15.68,15.68,0,0,1-2,2.75,4.48,4.48,0,0,0-1.25,1.75c0,.25-.62,1-4.5,4.87a5.49,5.49,0,0,1-3.75,1.5,10.67,10.67,0,0,1-6.5-2.62c-1.25-1-1.37-1.25-1.75-3.25,0-.13-.12-.13-.12-.25a7.72,7.72,0,0,1-.25-2.38c0-5.62,1.12-8.75,2.25-11,.62-1.25.87-1.62.87-2a7.55,7.55,0,0,1,.63-2c.25,0,1.12-4.5,1-4.12a20.47,20.47,0,0,0,.62-4.13V518c0-1-.12-1.5-.62-1.5a4.69,4.69,0,0,0-2,1.13,9.27,9.27,0,0,1-1.88.87s-2.75,3-2.87,3c-.63.88-2.25,3-2.13,3-1.62,1.38-5,7-8.25,12.5-3.37,5.75-6.5,11.38-6.87,13.63,0,0-1.25,2.87-4.13,2.87Z" transform="translate(-63.36 -128)"/><path class="cls-5" d="M406.18,473.21c0,2.38-.63,5.38-2,9.75-.88,2.75-1,4-1.63,4.63a11.62,11.62,0,0,0-1.75,2.75,4.72,4.72,0,0,1-1.25,1.75,15.77,15.77,0,0,0-2.37,2.75c-1.75,2.62-2.38,2.25-2.38,3.25,0,.5-4.37,5.75-4.5,5.87-.75.25-1.75,2.63-5,5.75a37.7,37.7,0,0,0-4.62,5.13c0,.25-3.38,9.62-4.25,12.75-.38,1.37-.75,4.62-1.25,7.25a29.65,29.65,0,0,0-.38,4c0,1.62.13,2.75.25,4.37a19.59,19.59,0,0,0,1,4.38c.13.87.5,1.12,1,1.12a1.64,1.64,0,0,0,.75-.12c.5,0,3.25-2.5,4-4a5.63,5.63,0,0,1,1.5-1.5,5.27,5.27,0,0,0,1.38-1.5A50.15,50.15,0,0,1,388.3,536a7.06,7.06,0,0,0,1.13-2,5,5,0,0,1,1-1.87,1.12,1.12,0,0,0,.37-.63,47.61,47.61,0,0,1,2.13-5.37.89.89,0,0,1,.75-.5c.5,0,1.5.5,1.5,1.37a.46.46,0,0,0-.13.38v.37c-1.37,2.75-5.12,10.25-5.87,11.25l-1.25,2.13a16.21,16.21,0,0,1-2,2.75,4.48,4.48,0,0,0-1.25,1.75c0,.25-.63,1-4.5,4.87a7,7,0,0,1-3.63,1.13,7.25,7.25,0,0,1-3.5-1.13c-2-1.12-3-4.25-4.25-6.25-.25-.37-.5-1.5-.87-2.12a3.41,3.41,0,0,1-.63-2.25c0-3.63.38-5.5.38-6.25,0-.38-.13-.38-.25-.5s-5.63,7.75-5.5,7.75c-.13.37-.38.5-.5.75l-.75,1.5c-.13.25-5.25,5.25-6.13,5.87-3,1.88-4.87,2.5-6.37,2.5a5.74,5.74,0,0,1-3.13-1c-.62-.12-1.62-2-2.5-4.62a10.78,10.78,0,0,1-1-4.38c0-.5.13-1,.13-1.62.25-2.75.75-4.88.75-7,0-.13.25-.38.25-.63a4.85,4.85,0,0,0,.75-2.12,11.41,11.41,0,0,1,2.12-5.25c1.25-2.75,1.63-3.5,7.13-10a9.49,9.49,0,0,1,4.75-3.25,9.73,9.73,0,0,1,5.75-1.75c2.62,0,5.62,1.62,6.5,4.37a23.7,23.7,0,0,1,1,3.5c0,.75.25,1.13.5,1.13s.5-.25.62-.88l.38-1.5a41.55,41.55,0,0,0,2.5-7.25l.62-2.25a2.5,2.5,0,0,0,.75-1.75,12.87,12.87,0,0,1,1-3.25c.75-2,1.38-4,2.13-6,1.37-3.75,4.62-12.25,5.5-12.25.12,0,.25-.37.25-.75,0-1.25,1.62-3.75,2.12-3.75.13,0,.13-.12.13-.25,0-1.12,4.12-6.87,5.5-7.75a5.17,5.17,0,0,0,1.37-1c0-.5,3.25-2.75,5-2.87.63,0,1.25-.13,1.88-.13C404.68,467.21,406.18,468.59,406.18,473.21Zm-38,46.5a5.84,5.84,0,0,0-.13-1.62l-.25-1.63c0-.25-.37-.5-.75-1.12a3.28,3.28,0,0,1-.5-1.25,11.07,11.07,0,0,1-1-.88,3.54,3.54,0,0,0-2.12-.87c-1.5,0-1.75.62-3,1.75a9,9,0,0,0-1.75,2.12,19.71,19.71,0,0,0-1.63,1.88c-.5.87-1.62,2.5-1.62,2.62,0,.5-.5,1-.88,1.38-1.5,1.5-3.62,6.87-4.12,9.62,0,.13-1.75,6.75-1.63,6.75v2.75a24.17,24.17,0,0,0-.37,4.13,4.08,4.08,0,0,0,.62,2.75,1.13,1.13,0,0,0,.88.37c.37,0,.62-.12,1-.12,3.87,0,11.37-10.5,13.87-15a3.4,3.4,0,0,1-1.62.5c-.38,0-.5-.13-.5-.38s.37-.75,1.12-1a2.73,2.73,0,0,0,1.25-1.12l.88-1.5C367.05,528.09,368.18,522.84,368.18,519.71Zm35.62-46a4.44,4.44,0,0,0-1.5-3.62c-.62-.5-1.25-1.13-1.5-1.13-1,0-3.62,3.13-5,5.5l-1.5,2.5c-.25.25-.87,1.5-2.5,5.5l-1.75,4.38c-1,2.62-3.25,8.25-3.87,10.62l-1.63,6.13c-.62,2.12-1.5,3.87-1.5,4.25s.13.62.38.62c.62,0,2.25-1.62,4.12-4.5.38-.62,1.88-1.87,1.88-2s5.5-7.75,5.5-7.62a11,11,0,0,1,2.75-3.5c1.5-1.25,4-7.38,4-8.13a5.62,5.62,0,0,1,.5-2A22,22,0,0,0,403.8,473.71Z" transform="translate(-63.36 -128)"/><path class="cls-5" d="M393.68,555.09c-.38,0-3.13-2.75-4-4a14.86,14.86,0,0,1-1.88-5.25c0-.13.13-.25.13-.38a11.51,11.51,0,0,0-.38-1.87,6,6,0,0,0-.12-.63l.75-5.12a13.56,13.56,0,0,1,.62-2.5.92.92,0,0,0,.13-.5,8.74,8.74,0,0,1,1.25-2.38,10.33,10.33,0,0,0,1-2,5.38,5.38,0,0,1,1-2.12l1.62-3a14.41,14.41,0,0,1,1.25-2.25c.25-.25.5-.5.5-.63a3.14,3.14,0,0,1,1-1.5c1-1.12,1.25-1.37,1.25-1.75s4-4.5,4.25-4.62c1.38-1,4.25-3.5,7.75-3.5a7.05,7.05,0,0,1,3.75,1c1.38.75,2.5,2.25,3.38,4.62a5.22,5.22,0,0,1,.5,2,4,4,0,0,1-.25,1,3.41,3.41,0,0,1-.63,1.5l-.37,1.13c-.88,1.87-4.38,5.87-4.75,5.87-2.5,2.25-3,2.25-6.88,4.38-2.5,1.12-3.5,1.5-5.12,1.62l-2.13.13-.62,1.37c-.63,1.25-.75,2.13-1.75,6.88l-.38,1.62a17.37,17.37,0,0,0-.37,3,7.93,7.93,0,0,0,.87,3c0,.13.13.13.13.25.87,1.75,2.62,3.25,4.12,3.25a12,12,0,0,0,5.25-1.62c3.63-2,9.25-7.5,10-9a5.63,5.63,0,0,1,1.5-1.5,5.27,5.27,0,0,0,1.38-1.5,50.15,50.15,0,0,1,3.62-5.63,7.06,7.06,0,0,0,1.13-2,5,5,0,0,1,1-1.87,1.12,1.12,0,0,0,.37-.63,47.61,47.61,0,0,1,2.13-5.37.89.89,0,0,1,.75-.5c.5,0,1.5.5,1.5,1.37a.46.46,0,0,0-.13.38v.37c-1.37,2.75-5.12,10.25-5.87,11.25l-1.25,2.13a16.21,16.21,0,0,1-2,2.75,6.49,6.49,0,0,0-1.25,1.75,78.48,78.48,0,0,1-8,8.75c-.75.62-1.63,1.12-2.38,1.75a15.52,15.52,0,0,1-3.5,1.62,8.47,8.47,0,0,1-3.87,1C397.55,557.21,394.8,555.09,393.68,555.09Zm8.12-24.38c.75-.37,1.75-.75,2.13-1,4.37-2.37,5.87-3.37,8.62-7.5a7.64,7.64,0,0,0,1.38-4,4.07,4.07,0,0,0-2-3.62,1.87,1.87,0,0,0-1.13-.25c-2.25,0-4.75,2.75-5.87,4.62a26.58,26.58,0,0,1-1.25,2.38,16.75,16.75,0,0,0-1.38,2.25.64.64,0,0,1-.25.5,6.91,6.91,0,0,0-1.62,3,5.68,5.68,0,0,1-.75,1.62c-1,1.13-.75,2.13-1.25,3.13A11.85,11.85,0,0,0,401.8,530.71Z" transform="translate(-63.36 -128)"/><path class="cls-5" d="M461.17,525.46a.79.79,0,0,0-.12.5l-.13.5c-1.5,3.38-4.75,10.5-5.5,11.5l-1.25,2.13c-.5.87-1.25,2.5-1.75,3.25a10.27,10.27,0,0,0-1.5,2.62c0,.25-1.12,2-3.75,5.88a3.42,3.42,0,0,0-.5.87,8.29,8.29,0,0,1-2.87,2.63c-.25,0-.38.12-.38.25,0,1-2.25,2-4.25,2.12a3.37,3.37,0,0,1-2-.5c-1.25-.62-2.87-2.37-3-3.37a11.49,11.49,0,0,0-.87-2.38,15.8,15.8,0,0,1-1.25-5.25,1.59,1.59,0,0,1,.25-1,.54.54,0,0,0,.12-.37c0-.25-.12-.5-.12-.75s-.13-.38-.13-.75a7.71,7.71,0,0,1,.25-1.25,10.63,10.63,0,0,0,.5-2.75,8.2,8.2,0,0,1,.5-2.63,7.55,7.55,0,0,0,.75-2.25c.25-1.62.63-3,1-3.25a.63.63,0,0,0,.25-.5,21.14,21.14,0,0,1,.63-2.5c1.12-3.37,1.25-3.75,1.25-4.25s0-.62.12-.75a5.47,5.47,0,0,0,.63-2.37c.12-.88.75-1.88.75-3,0-2.13-1.5-1.75-2.5-2.75a18.56,18.56,0,0,0-4.13-1h-.37a34.78,34.78,0,0,1-1.63,5.12,7.19,7.19,0,0,1-.87,2.13c-.13.12-.13.37-.13.75,0,1-1.12,3.37-2,5a4.1,4.1,0,0,1-2,1.12,1.74,1.74,0,0,1-.37-1.12c0-.25,0-.38.12-.5l.63-1.38c1.37-2.62,2.75-9.62,3.12-12.5-.25-.12-.37-.12-.5-.25a3.37,3.37,0,0,1-.62-1.12c0-.13,0-.38-.13-.38-.37,0-1.25-.87-1.5-1.5a2.71,2.71,0,0,0-.37-.87c-.38-.25-.5-1.13-.5-2a2.69,2.69,0,0,1,.25-1.5,3.34,3.34,0,0,0,.25-.88,3.71,3.71,0,0,1,.75-1.37l1.12-1.75a3.37,3.37,0,0,1,2.63-2h.75c.75,0,1.25.12,1.25.25s.12.25.37.25.25.25.25.75a19,19,0,0,1-.5,3.62,20,20,0,0,0-.5,2.88l-.12,1.25a6.23,6.23,0,0,0-.38,1.5c0,.37.13.5.5.75,2.25,1.25,3.75,1.87,4.38,1.87a1.47,1.47,0,0,1,.87.25c0,.13.25.25.5.25a1,1,0,0,1,.88.38,1.07,1.07,0,0,0,.75.37c.25,0,.5.13.5.25a.91.91,0,0,0,.62.25c.63,0,2.38,1.63,3.13,3l.75,1.13v2.62a19.17,19.17,0,0,1-.75,6.25l-.5,2.13a5.51,5.51,0,0,1-.5,1.5l-.63,1.75-1.87,6.87a8.38,8.38,0,0,0-.75,2.5c0,.25,0,.38.12.5a8.07,8.07,0,0,1-.25,1.13c-.37.75-.5,1-.5,6.62,0,3,.13,3.75,1.13,4.63.25.12.37.25.62.25a3.22,3.22,0,0,0,1.25-.5c.88-.63,1.75-.88,1.75-1a.27.27,0,0,1,.25-.25c.38,0,1.38-1.25,2.38-2.88-.13,0,6.87-10.87,8.5-15.75.12-.37.87-1.25,1.12-2a5,5,0,0,1,1-1.87,1.15,1.15,0,0,0,.38-.63,49,49,0,0,1,2.12-5.37.89.89,0,0,1,.75-.5C460.17,524.09,461.17,524.59,461.17,525.46Z" transform="translate(-63.36 -128)"/><path class="cls-5" d="M490.17,524.46c0,1.13-.62,3.25-5.25,7.75-2.5,2.38-9.12,3.88-11.5,4.38a1.32,1.32,0,0,0-.75.25,15.31,15.31,0,0,1-.75,4.62c-.75,2.63-1.25,3.63-1.5,3.75a.67.67,0,0,0-.25.5,15.16,15.16,0,0,1-2.25,3.13c-.25,0-.37,0-.37.12a.27.27,0,0,1-.25.25c-.13,0-.38.13-.38.25s0,.38-.25.5l-.5.63a2.52,2.52,0,0,1-1.12.87,12.21,12.21,0,0,1-6.5,2.13,4,4,0,0,1-3.13-1.13,2.68,2.68,0,0,1-.87-.75l-.63-.62a.39.39,0,0,1-.37-.38c0-.25-.25-.5-.5-.75a4.75,4.75,0,0,1-1.25-2.37l-.38-2.38a7.2,7.2,0,0,1-.37-1.75,1.91,1.91,0,0,0-.25-.5c-.13,0-.13,0-.13-.12a.46.46,0,0,1,.13-.38,1.4,1.4,0,0,0,.12-.62c-.25-.13-.25-.75-.25-1.13s0-.75.25-.75a2.25,2.25,0,0,0,.88-.25,8.34,8.34,0,0,1,2.12-.25,12.26,12.26,0,0,0,2.5-.5,4.05,4.05,0,0,1,1.25-.37,2.44,2.44,0,0,0,.88-.25,3.05,3.05,0,0,1,1.25-.25c.37,0,.87-.25.87-.38a1.1,1.1,0,0,1,.75-.25l.75-.12a4.86,4.86,0,0,1,1.5-.5l1.38-.63a5.36,5.36,0,0,1,1.87-.37c.13,0,.13-.13.13-.5a7.94,7.94,0,0,0-.13-1.75,17.72,17.72,0,0,1-.62-2.38,5.63,5.63,0,0,0-.63-2c-.12,0-.37-.25-.37-.62l-.38-.75a1.66,1.66,0,0,1-.25-1,4,4,0,0,0-.62-1.5,1.94,1.94,0,0,1-.5-.75c0-.5-.38-1.38-.63-1.38s-.12-.25-.12-.5a1,1,0,0,0-.25-.62,54,54,0,0,1-2.13,5,2.78,2.78,0,0,1-1.87,1.12h-.13a1.74,1.74,0,0,1-.37-1.12c0-.25,0-.38.12-.5l.63-1.38a48.93,48.93,0,0,0,3-8.37v-2.75a5.49,5.49,0,0,1,.12-1.88,2,2,0,0,0,.25-1.12,7.7,7.7,0,0,1,.75-2.75c.13,0,.25-.25.38-.5.12-.75.62-1.38,1-1.38.12,0,.37-.25.62-.5s.63-.5.88-.5a.79.79,0,0,0,.5-.12c0-.13.37-.13.5-.13,1,.25,1.37.63,1.5,1.25a2.91,2.91,0,0,1,.12,1.13,8,8,0,0,1-.62,3.25,1.75,1.75,0,0,0-.25,1.12c0,.88.12,1.88.12,2.75a8.13,8.13,0,0,0,.25,2.5c.13,0,.25.63.38,1.25l.37,2a3.34,3.34,0,0,1,.38,1.25,1,1,0,0,0,.25.63c.12,0,.25.25.25.5a6,6,0,0,0,.37,1.12,3,3,0,0,1,.25.88c0,.25.13.5.25.5s.38.62.63,1.12a2.79,2.79,0,0,0,.37,1.13c.13,0,.25.5.25,1l.38,1.37a4,4,0,0,1,.25,1.38c.25,1.5.25,2.5.37,3.25,2.5-.13,7-1.75,10.38-4a13.62,13.62,0,0,0,5.12-6.5c.38-1.13.63-1.13,1.13-1.13S490.17,523.34,490.17,524.46Zm-22.62,14.88a5.92,5.92,0,0,0-.13-1.75c-1.25.5-2.75.5-3.37,1a2.87,2.87,0,0,1-1.13.5,17.8,17.8,0,0,0-3.25,1,21.9,21.9,0,0,1-3.62,1,5.55,5.55,0,0,0-2.25,1.37c-.13.13-.25.25-.38.25a28.41,28.41,0,0,1,.75,3.75,6.61,6.61,0,0,0,6,4.25,5.22,5.22,0,0,0,2-.5c.13-.12,3.75-3.75,3.63-3.75.25,0,1.12-2.62,1.12-3.25l.25-1C467.3,542.21,467.42,541.34,467.55,539.34Z" transform="translate(-63.36 -128)"/><path class="cls-5" d="M250.94,576.17l-1.8-.6a11.82,11.82,0,0,1-5.7-3.9c-1.95-2.55-3.9-5.55-3.75-6l-.75-2.4a5.26,5.26,0,0,1-.45-2.4l-.75-2.85c-.15-1.2-.45-2.7-.45-3.15s-.45-1-.45-1.2.15-.3.15-.45l-.3-1.8c-.3-1.65-.6-8.55-.6-10.5-.15-2.85-.15-5.55-.3-8.4v-1.8c0-1.05-.6-1.8-.6-3.6-.45-1.65-1.35-6-2.25-6.9-1.2-1.35-3.9-4.5-4.35-4.5l-1.65-.9a4.74,4.74,0,0,0-2.85-1.05,4.46,4.46,0,0,0-2.25.75l-1.35.9c-.75,0-5.55,3.45-5.85,3.9l-.9,1.35c-1.05,1.35-.45,2-1.2,2.4l-1,.75c-.59.3-.9.75-1.2,1.8-1.5,5.1-5.69,13.5-8.25,16.5l-.89,1.65a11.81,11.81,0,0,1-2.7,3.3c-.75.75-1.35,1.65-2.1,2.4a12,12,0,0,1-2.1,2.1,1.28,1.28,0,0,0-.9.45c-.75.75-3.45,2.55-4,2.55a.67.67,0,0,0-.6.45c0,.45-4.5,2.7-5.55,2.7a3.64,3.64,0,0,0-1.65.6,4.4,4.4,0,0,1-2.55.9c-.9,0-1.65,0-1.8.3,0,.15-.3.15-.45.15a1.1,1.1,0,0,1-.9-.3,3.35,3.35,0,0,0-2-.45c-.75,0-3-1.5-4.35-2.7-2.55-2.25-3-4.35-3-9,0-2.1.45-3.6,1.95-7.65a31.25,31.25,0,0,1,3.45-6.45,1.65,1.65,0,0,0,.45-.9c0-.3.45-.6.6-.75l1.05-1.35c.3-.3.9-1,1.65-1a.69.69,0,0,1,.6.75,2.39,2.39,0,0,1-.45,1.2c-1.35,1.65-3.15,6.6-4.2,9.45a17.36,17.36,0,0,0-1.2,6.75V549c.15,2,1.65,4.5,2.4,4.5a.32.32,0,0,1,.3.3c0,.6,4.35,1.65,6.6,1.65.6,0,1.05,0,1.2-.15l1.5-.45c1.5-.3,4.8-2.4,7.8-5.4.45-.6.6-.9,1.05-.9a9.33,9.33,0,0,0,1.2-1.5l2.4-3.75a12.62,12.62,0,0,0,1.65-3,1.74,1.74,0,0,1,.6-1.5,4.83,4.83,0,0,0,1.2-2c.6-2.7,3.3-9.45,3.74-11.4l1.36-3.9c.45-1.35,1.5-3.3,1.5-4.8a12.43,12.43,0,0,1,1.2-4.2l.9-2.7c.29-2.55,1.79-7.2,2.69-10.5,1.5-5.7,2.4-6.9,2.4-8.55,0-.75.15-1.65.3-1.65a4.06,4.06,0,0,0,1.05-2.1c.9-3.45,3.6-11.1,4.35-12.15a10.38,10.38,0,0,0,2-4.2c0-.3,0-.75-.75-.75-3.3.45-6.6,1-9.9,1.5a23.22,23.22,0,0,1-3.3.15,3.39,3.39,0,0,1-1.5-.15.52.52,0,0,0-.44-.15l-1.2.15c-.3,0-.75.15-1.2.15a6.38,6.38,0,0,1-1.65-.3,6.6,6.6,0,0,0-1.5-.3.66.66,0,0,0-.45.15c-.3.3-1.65.45-4.8.9-2,.3-3.15.6-3.45.9a14.94,14.94,0,0,1-1.65.6,4.12,4.12,0,0,0-1.8,1.05,1.81,1.81,0,0,1-.9,1.35c-1.05.6-1.2,1.35-1.5,3.9L183.3,483l.9,1.05c.75.9,3.6,1.95,5.85,1.95.45,0,.9-.15,1.8-.15.3,0,1.05.15,1.05.9,0,.15-.15.15-1.2.45l-2.1.6a14.39,14.39,0,0,1-2.25.45,2.93,2.93,0,0,1-1,.15,1.36,1.36,0,0,1-1.05-.45.83.83,0,0,0-.75-.3h-.75c-1.05,0-3.3-1.2-3.3-1.95,0-.15-.15-.3-.45-.3s-.45-.3-.45-1.05a30.77,30.77,0,0,1,.45-4.2c.3-3,2.1-6.75,3.45-6.75.3,0,.75-.3.75-.45,0-.9,6-2.85,9.9-3.6,1.5,0,3.15.15,4.65.15,1.8,0,3.75-.15,5.54-.15,5-.15,9.6-.15,10.5-.45,1.35-.15,2.55-.45,3.9-.6a17.68,17.68,0,0,0,2.85-.6,11.94,11.94,0,0,1,4.5-1.35c.3,0,.75,0,.75-.15a.4.4,0,0,1,.45-.45,1.91,1.91,0,0,1,1,.6,1.12,1.12,0,0,1,.15.75,19,19,0,0,1-1.8,5.85,5.91,5.91,0,0,0-.75,2.1c-.45,1.2-.75,2.55-1.2,3.75a44.86,44.86,0,0,0-2.25,6.3c-.3,1.65-.75,3.15-1.05,4.8-.3.6-.45,1.8-.9,3-.15.6-1.05,1.8-1.05,2.55v.6a7.36,7.36,0,0,1-.45,1.8c-.6,1.35-1.2,3.9-2.1,6.75l-.9,3.15a11.16,11.16,0,0,0-.45,2.25l-1.35,3.9a7.94,7.94,0,0,0-.9,2,.32.32,0,0,0,.3.3,2.47,2.47,0,0,0,1.35-.75,4.47,4.47,0,0,1,1.65-1c.45-.15.9-.45.9-.6s.3-.3.6-.3a.67.67,0,0,0,.6-.45,4.32,4.32,0,0,1,1.95-2.25c1.05-.75,2.25-1.65,2.1-1.8s.3-.45.6-.45.6-.3.9-.6l2.1-2.1c1.65-1.65,3.9-2.55,5.85-6.45a3.29,3.29,0,0,1,1.35-1.5c.15,0,.6-.15.6-.45a.67.67,0,0,1,.45-.6c.15,0,.6-.6,1-1.35a4.21,4.21,0,0,1,1.5-1.8c.6-.45,1.05-.9,1.05-1.35a.4.4,0,0,1,.45-.45,6.48,6.48,0,0,0,1.5-1.5l2.55-2.7a24.91,24.91,0,0,1,1.95-2.1l1.2-1.05a10.45,10.45,0,0,1,1.8-2.1c1.5-1.5,2.85-3.15,4.35-4.65a16.38,16.38,0,0,1,3.15-2.85.48.48,0,0,0,.45-.45c0-.45,1.65-2.1,5-4.35l2.85-1.95a7.35,7.35,0,0,1,4.2-1.35,1.14,1.14,0,0,0,.6-.3c.3-.3.9-.3,1.65-.3,1.8,0,4.5.45,5.4,1.35,1.8,1.8,2.4,2.55,2.85,3.75l.75,1.35c.15,0,.15.45.15,1.05,0,1.8-.6,5.25-1.05,5.25l-1.5,1.65a5.14,5.14,0,0,1-1.35,1.35.67.67,0,0,0-.45.6c0,.75-1.65,1.5-2.7,1.5a1.31,1.31,0,0,0-1.2.6,1.88,1.88,0,0,1-1.65.9,2,2,0,0,1-1.8-.9,1.13,1.13,0,0,1-.15-.6c0-.45.3-.75.9-.75s3-1.8,3-2.4a1.29,1.29,0,0,1,.9-1.05c.75-.3,1.8-4.2,1.8-6.45a3,3,0,0,0-.3-1.35l-.75-1.35c0-.6-1.05-1.5-1.2-1.5a9.43,9.43,0,0,0-2.1-.75c-1.5,0-5.25,1.95-8.55,4.5l-3.45,2.7c-.15,0-.3.3-.3.45a6,6,0,0,1-1.5,1.95c-3,2.55-3.45,3.15-3.45,3.45l-1.65,1.8a7.76,7.76,0,0,0-2,1.8c0,.15-.45.3-.9.6a3.87,3.87,0,0,0-1.35,1.35l-.75,1.2-2.7,3.15a4.23,4.23,0,0,1-1.35,1.8,7.35,7.35,0,0,0-2,2.1c-.45,1.35-3.45,4.2-4,4.2-.3,0-.45.6-.45.75,0,.45-.6,1.05-1.8,2.1-.9.75-1.65,1.65-1.65,2.1,0,.3-.15.6-.3.6s-1,.75-2.25,1.95c-.9.9-1.8,2-2.1,2s-1.65,1.35-1.65,1.95c0,.15.6.3,1.05.3.3,0,.45,0,.6-.15a1.12,1.12,0,0,1,.75-.15,7.28,7.28,0,0,1,3,.9l2.4.45c.45,0,.9.3.75.45s.45.3,1.2.45c.6.15,1.2.45,1.05.6s.3.6.9,1.05l1.8,1.35a4.11,4.11,0,0,0,1.05.6c.15,0,.15.3.15.6a1.07,1.07,0,0,0,.45.9c.3.15.45.9.75,1.65l1.05,3.3c1,3.15.9,8.25,1.35,13.2.15,1.2.15,2.55.3,3.75a37.94,37.94,0,0,0,.3,4.8c1.2,8.55,1.95,16.2,2.4,17.1l.3.9a3.39,3.39,0,0,0,.75,1.5c.15.45.6,1.35.6,1.5a1.51,1.51,0,0,0-.15.45c0,.6.75,1.8,1.95,3.15l.9,1.65c-.15.6,3.15,1.65,4.95,1.65,3.3,0,6.3-2.1,9.15-5.7,1-1.35,1.35-2.25,1.8-4.8l.6-3.75c0-.15.3-.3.75-.3a2.73,2.73,0,0,1,1.65.6,1.17,1.17,0,0,1,.45,1.05,11.08,11.08,0,0,1-.3,1.8c-.45,2.25-2.25,6.3-3,6.9l-1.35,1.5a29,29,0,0,1-3.15,2.55l-1.95,1.65a10.55,10.55,0,0,1-1.5,1,17.88,17.88,0,0,1-6,1.05A7,7,0,0,1,250.94,576.17Z" transform="translate(-63.36 -128)"/><path d="M610.94,179.57v16.56c2.56.08,6.4.24,10.16.24a34.19,34.19,0,0,0,5.2-.56c.48,0,.64.24.64.56,0,1.28-2.24,3-5.84,3a85.68,85.68,0,0,1-10.16-.56v12.16h4.24c4.88,0,9-.16,11.76-.32a13.14,13.14,0,0,0,3.12-.4,50.47,50.47,0,0,0,2.08-8.56c.4-2.08.72-2.48,1.28-2.48,1.12,0,2.16,1.68,2.16,4.4,0,4.48-1.68,8.72-5.52,9.36a143.48,143.48,0,0,1-16.32.8c-11.52,0-12.4-.16-12.4-1.44,0-1,1.6-1.6,2.88-1.6h1.6c.4-10.32.4-20.72.08-31.2-5.76-.32-6.4-.56-6.4-1.28,0-1,1.36-1.36,3.2-1.36,3.68,0,16.08.24,21.44.4.32-3.2.64-4.08,1.44-4.08,1,0,2.08,2.08,2.64,7.6.08.72.16,1.84.16,2.48,0,2.56-1.12,4.24-2.24,4.24-1,0-1.52-1.36-1.92-7.52-4.56-.24-8.4-.32-12.48-.4Z" transform="translate(-63.36 -128)"/><path d="M496.49,213c-2.16-.24-2.32-.56-2.32-1,0-1.2,1.84-1.6,4.64-1.6H503c0-10.4.08-20.16.08-30.72-3.84,0-7.68.08-11.12.16-.24,2.4-.32,6-.64,8.08-.24,1.68-.4,2.8-1.44,2.8-1.2,0-2.24-1.2-2.24-4.16,0-6,1.2-13.68,2.8-13.68.88,0,1.44,1.2,1.68,4.32,4.48-.16,9.76-.24,15-.24,3.84,0,7.12.08,10.4.16.16-3.2.64-4.4,1.44-4.4.64,0,1.2.72,1.68,4.48,1.84.16,2.08.64,2.08,1.12a2.44,2.44,0,0,1-1.68,2c.32,4.08.4,5.68.4,6.4,0,2.48-.8,4.48-2.24,4.48-.64,0-1-.56-1.12-1.92a67.79,67.79,0,0,1-.56-8.8,91.88,91.88,0,0,0-9.76-.72c.16,11,.16,7.6.24,19.28,0,5.2-.4,9.2-1.44,11.36,3.84-.08,7.76-.16,9.12-.16,1.12,0,1.36.32,1.36.88,0,1-2.16,2.32-6.56,2.32C503.93,213.49,498.25,213.17,496.49,213Z" transform="translate(-63.36 -128)"/><path d="M547.39,213c-2.16-.24-2.32-.56-2.32-1,0-1.2,1.84-1.6,4.64-1.6h2.88c-.88-2.4-2.08-5.36-3.36-8.56-3.92.24-8.24.32-12.72.32a8,8,0,0,1-4.4-.88c-1.12,3.12-2.24,6.32-3.2,9.36,1.36.08,2.8.08,4.16.08,2.08,0,3.44-.4,4.64-.4.64,0,1.52.4,1.52,1,0,1.12-2.24,2.24-7.12,2.24-6.8,0-10-1-10-2.08,0-.56.88-1.12,2.32-1.12h1.2c3.76-10.48,8.24-21.28,11.28-28.48,1-2.32,1.76-3.52,2.48-3.92-.48-3.6.4-5.68,1.6-5.68.48,0,.88.4,1.28,1.2.48,1,.88,2.48,1.28,3.36,5.76,12,9.76,21.6,14.64,33.44,1.52-.08,2.88-.08,3.76-.08,1.12,0,1.36.32,1.36.88,0,1-2.16,2.24-6.56,2.24C553.23,213.41,549.15,213.17,547.39,213Zm-14.48-13.84c1.2-.08,3.2-.16,6.72-.16h8.48c-2.4-5.84-5.2-12.4-7.92-18.4C537.87,186.21,535.31,192.69,532.91,199.17Z" transform="translate(-63.36 -128)"/><path d="M570.08,213c-2.16-.24-2.32-.56-2.32-1,0-1.2,1.84-1.6,4.64-1.6h4.16c0-10.4.08-20.16.08-30.72-3.84,0-7.68.08-11.12.16-.24,2.4-.32,6-.64,8.08-.24,1.68-.4,2.8-1.44,2.8-1.2,0-2.24-1.2-2.24-4.16,0-6,1.2-13.68,2.8-13.68.88,0,1.44,1.2,1.68,4.32,4.48-.16,9.76-.24,15-.24,3.84,0,7.12.08,10.4.16.17-3.2.64-4.4,1.45-4.4.64,0,1.19.72,1.68,4.48,1.83.16,2.08.64,2.08,1.12a2.46,2.46,0,0,1-1.68,2c.31,4.08.39,5.68.39,6.4,0,2.48-.79,4.48-2.24,4.48-.64,0-1-.56-1.12-1.92a69.61,69.61,0,0,1-.56-8.8,91.87,91.87,0,0,0-9.75-.72c.15,11,.15,7.6.23,19.28,0,5.2-.39,9.2-1.44,11.36,3.84-.08,7.76-.16,9.13-.16,1.12,0,1.36.32,1.36.88,0,1-2.16,2.32-6.57,2.32C577.52,213.49,571.84,213.17,570.08,213Z" transform="translate(-63.36 -128)"/><path d="M475.45,145.17c.38-5.38,2-9.5,4.13-9.5.87,0,1.37.75,1.37,2.5,0,1.25-.12,3.25-.12,5.75,0,10.62,1.75,12.62,1.75,18,0,4.62-1.88,7.62-3.88,7.62-2.5,0-3.37-2.12-3.37-20a75.48,75.48,0,0,0-12.5-1.12c-10.88,0-16.88,6.37-16.88,14.12s3.13,11.75,12.63,16.38l9.5,4.75C486.7,192.79,490,198.29,490,206.79c0,14.25-9.37,25.63-29.75,25.63-19.12,0-28.62-7.13-28.62-21.25,0-7.75,4.25-13.88,8.25-13.88a1.15,1.15,0,0,1,1.25,1.13c0,1.75-2,5.25-2,12.5,0,9,6.75,16.12,22.5,16.12,13.12,0,21-6.5,21-15.87,0-7.38-4.13-12-18.88-19.88l-9.12-4.87c-10.25-5.5-15.13-11.5-15.13-22,0-11.88,9.63-20.75,24.38-20.75A44.22,44.22,0,0,1,475.45,145.17Z" transform="translate(-63.36 -128)"/><path d="M386.36,214.66c-3.28-1.2-4.24-1.84-4.24-2.48s1-1.12,1.68-1.12,3,.8,5,1.2l.48-30.32-5.12-.24c-1-.08-1.36-.32-1.36-.88s.8-1.84,4.08-1.84a39.31,39.31,0,0,1,6.48.64,25.18,25.18,0,0,1,9-1.68c13.6,0,20.56,7.12,20.56,17,0,12.64-7.36,21.76-23,21.76A43.63,43.63,0,0,1,386.36,214.66Zm32.08-17c0-8.72-5.12-17.6-24.48-15.84l.08,31.6a39.12,39.12,0,0,0,6.48.72C410.92,214.18,418.44,208.66,418.44,197.7Z" transform="translate(-63.36 -128)"/><path d="M339.6,215.3c-2.24-.24-2.4-.56-2.4-1,0-1.12,1.6-1.52,4.24-1.6.48-6.48.56-18.32.56-28.32-4.16-4.24-4.8-5.28-4.8-6.56,0-.8.8-1.28,1.92-1.28,2.64,0,4.4,1.52,5.6,4.24a312.5,312.5,0,0,1,25.44,28.88l-.56-27.44c-6.88-.4-7.76-.72-7.76-1.44,0-1,1.44-1.68,4-1.68,3.84,0,8.32-.16,10.56-.16,1,0,1.2.24,1.2.8,0,1-1.12,1.84-4.24,2.72v27c0,4.48-1.84,7-3.68,7-1.36,0-2.24-2.16-5-5.68-5.28-7-13.28-16.32-19.68-23.2.08,7.44.08,18,0,25.12,4.08,0,8.72-.16,10.72-.16,1.12,0,1.36.32,1.36.88,0,1-2.24,2.32-6.72,2.32C346.08,215.7,341.36,215.46,339.6,215.3Z" transform="translate(-63.36 -128)"/><path d="M334.57,196.1c0,12.56-7.68,20.48-19.44,20.48-10.8,0-17.6-6-17.6-17.44,0-8.72,3.92-16.08,10.56-19.44,1.92-1.52,3.76-2.16,8.24-2.16C327.37,177.54,334.57,185.86,334.57,196.1Zm-32.4,2c0,8.72,4.32,15.44,14.16,15.44,8.48,0,14.32-6,14.32-16,0-11-9.2-16.88-22.24-15.84C304.41,185.3,302.17,190.26,302.17,198.1Z" transform="translate(-63.36 -128)"/><path d="M280.52,215.3c-1.2-.08-1.44-.4-1.44-.8,0-1.36,2.88-1.68,5.6-1.68h.08c-.64-9-1.68-19.44-2.24-27.84-3.52,8.32-9.44,21.92-13.84,31.28a.8.8,0,0,1-.8.48c-.72,0-1-.4-1.68-2.08-3.92-9.92-9.2-19.84-13.68-28.16-.64,10.08-1,13.92-1.6,20.16-.4,3.76-.88,5.6-2.24,6.4,6,0,9.68-.64,10.64-.64.56,0,1,.24,1,.88,0,1-1.2,2.64-7.2,2.64-8.32,0-11.2-.4-11.2-1.6,0-.56.64-1.52,2.88-1.52.56,0,1,0,2,.08,1-7.68,2.24-19.28,3.2-29.12a11,11,0,0,1-.8-4.16c0-2.56.88-5,3.36-5,.8,0,1.36.4,1.36,1.68,0,.56-.08,1.76-.24,3.12,3.6,6,11.92,21.36,15.44,29.52,4.16-8.8,9.12-19.36,12.4-28.16.64-1.76,1.76-4.56,3.84-4.56.88,0,1.28.72,1.44,2.8.16,1.76.32,4.56.64,7.6.72,7.44,1.6,16,2.48,26.32,1.6.08,3.28.16,4.32.16s1.28.32,1.28.8c0,.8-1.2,2.24-4.08,2.24C288,216.18,284.76,215.7,280.52,215.3Z" transform="translate(-63.36 -128)"/><path d="M218.86,215.3c-2.16-.24-2.32-.56-2.32-1,0-1.2,1.84-1.6,4.64-1.6h2.88c-.88-2.4-2.08-5.36-3.36-8.56-3.92.24-8.24.32-12.72.32a8,8,0,0,1-4.4-.88c-1.12,3.12-2.24,6.32-3.2,9.36,1.36.08,2.8.08,4.16.08,2.08,0,3.44-.4,4.64-.4.64,0,1.52.4,1.52,1,0,1.12-2.24,2.24-7.12,2.24-6.8,0-10-1-10-2.08,0-.56.88-1.12,2.32-1.12h1.2c3.76-10.48,8.24-21.28,11.28-28.48,1-2.32,1.76-3.52,2.48-3.92-.48-3.6.4-5.68,1.6-5.68.48,0,.88.4,1.28,1.2.48,1,.88,2.48,1.28,3.36,5.76,12,9.76,21.6,14.64,33.44,1.52-.08,2.88-.08,3.76-.08,1.12,0,1.36.32,1.36.88,0,1-2.16,2.24-6.56,2.24C224.7,215.7,220.62,215.46,218.86,215.3Zm-14.48-13.84c1.2-.08,3.2-.16,6.72-.16h8.48c-2.4-5.84-5.2-12.4-7.92-18.4C209.34,188.5,206.78,195,204.38,201.46Z" transform="translate(-63.36 -128)"/><path d="M169.08,215.3c-2.16-.24-2.32-.56-2.32-1,0-1.2,1.84-1.6,4.64-1.6h3c-.24-10.4-.24-20.64.16-30.88-2.4-.08-4.56-.24-5.36-.32-2-.16-2.32-.4-2.32-.8,0-.88,1.68-2,4.24-2,4.08,0,11.92.56,14.16.64,1,.08,1.2.32,1.2.88,0,.88-1.76,1.68-5.28,1.68h-1.6c.08,8.16.08,16.24,0,24.32a15.82,15.82,0,0,1-1,6.48c3-.08,5.76-.16,7.12-.16,1.12,0,1.36.32,1.36.88,0,1-2.16,2.24-6.56,2.24C176.28,215.7,170.84,215.46,169.08,215.3Z" transform="translate(-63.36 -128)"/><path d="M94.66,141.75c.87-8.5,2.75-13.75,5.25-13.75,1.12,0,1.5.62,1.5,2.12v10.75c2.75-.25,5.75-.37,8.75-.37,35.75,0,51,18,51,43.5,0,25.12-13,44.5-50.88,44.5a74.31,74.31,0,0,1-16.5-2,15.52,15.52,0,0,1-6.25,1.12c-8.12,0-14.75-4.5-14.75-11,0-1.12.5-2,1.63-2,2.75,0,8,4.25,18.25,7A50.82,50.82,0,0,0,93.91,209c0-10.25.37-52.63.37-57.13,0-1.75,0-3.5.13-5.25-14.5,2.25-22.5,9.25-22.5,21.13A32.89,32.89,0,0,0,74,180.37a4.58,4.58,0,0,1,.5,1.88.89.89,0,0,1-1,.87c-4.25,0-8.5-5.37-8.5-15.12C65,153.25,77.53,144.75,94.66,141.75Zm6.75,4.12V209.5c0,5.37-.75,10-3,13.37A120.27,120.27,0,0,0,113.78,224c28.25,0,39.88-14.5,39.88-36.38,0-24.62-15-41.87-47.38-41.87C104.53,145.75,102.91,145.87,101.41,145.87Z" transform="translate(-63.36 -128)"/><path class="cls-9" d="M609.77,180.59v16.56c2.56.08,6.4.24,10.16.24a34.19,34.19,0,0,0,5.2-.56c.48,0,.64.24.64.56,0,1.28-2.24,3-5.84,3a85.68,85.68,0,0,1-10.16-.56V212H614c4.88,0,9-.17,11.76-.33a12.61,12.61,0,0,0,3.12-.4,50.21,50.21,0,0,0,2.08-8.56c.4-2.08.72-2.48,1.28-2.48,1.12,0,2.16,1.68,2.16,4.4,0,4.48-1.68,8.72-5.52,9.37a146.51,146.51,0,0,1-16.32.79c-11.52,0-12.4-.15-12.4-1.44,0-1,1.6-1.6,2.88-1.6h1.6c.4-10.32.4-20.72.08-31.2-5.76-.32-6.4-.56-6.4-1.28,0-1,1.36-1.36,3.2-1.36,3.68,0,16.08.24,21.44.4.32-3.2.64-4.08,1.44-4.08,1,0,2.08,2.08,2.64,7.6.08.72.16,1.84.16,2.48,0,2.56-1.12,4.24-2.24,4.24-1,0-1.52-1.36-1.92-7.52-4.56-.24-8.4-.32-12.48-.4Z" transform="translate(-63.36 -128)"/><path class="cls-9" d="M495.32,214c-2.16-.24-2.32-.56-2.32-1,0-1.2,1.84-1.6,4.64-1.6h4.16c0-10.4.08-20.16.08-30.72-3.84,0-7.68.08-11.12.16-.24,2.4-.32,6-.64,8.08-.24,1.68-.4,2.8-1.44,2.8-1.2,0-2.24-1.2-2.24-4.16,0-6,1.2-13.68,2.8-13.68.88,0,1.44,1.2,1.68,4.32,4.48-.16,9.76-.24,15-.24,3.84,0,7.12.08,10.4.16.16-3.2.64-4.4,1.44-4.4.64,0,1.2.72,1.68,4.48,1.84.16,2.08.64,2.08,1.12a2.44,2.44,0,0,1-1.68,2c.32,4.08.4,5.68.4,6.4,0,2.48-.8,4.48-2.24,4.48-.64,0-1-.56-1.12-1.92a67.79,67.79,0,0,1-.56-8.8,91.88,91.88,0,0,0-9.76-.72c.16,11,.16,7.6.24,19.28,0,5.2-.4,9.2-1.44,11.36,3.84-.08,7.76-.16,9.12-.16,1.12,0,1.36.32,1.36.88,0,1-2.16,2.32-6.56,2.32C502.76,214.51,497.08,214.19,495.32,214Z" transform="translate(-63.36 -128)"/><path class="cls-9" d="M546.22,214c-2.16-.24-2.32-.56-2.32-1,0-1.2,1.84-1.6,4.64-1.6h2.88c-.88-2.4-2.08-5.36-3.36-8.56-3.92.24-8.24.32-12.72.32a8,8,0,0,1-4.4-.88c-1.12,3.12-2.24,6.32-3.2,9.36,1.36.08,2.8.08,4.16.08,2.08,0,3.44-.4,4.64-.4.64,0,1.52.4,1.52,1,0,1.12-2.24,2.24-7.12,2.24-6.8,0-10-1-10-2.08,0-.56.88-1.12,2.32-1.12h1.2c3.76-10.48,8.24-21.28,11.28-28.48,1-2.32,1.76-3.52,2.48-3.92-.48-3.6.4-5.68,1.6-5.68.48,0,.88.4,1.28,1.2.48,1,.88,2.48,1.28,3.36,5.76,12,9.76,21.6,14.64,33.44,1.52-.08,2.88-.08,3.76-.08,1.12,0,1.36.32,1.36.88,0,1-2.16,2.24-6.56,2.24C552.06,214.43,548,214.19,546.22,214Zm-14.48-13.84c1.2-.08,3.2-.16,6.72-.16h8.48c-2.4-5.84-5.2-12.4-7.92-18.4C536.7,187.23,534.14,193.71,531.74,200.19Z" transform="translate(-63.36 -128)"/><path class="cls-9" d="M568.92,214c-2.16-.24-2.32-.56-2.32-1,0-1.2,1.84-1.6,4.64-1.6h4.16c0-10.4.08-20.16.08-30.72-3.84,0-7.68.08-11.12.16-.24,2.4-.32,6-.64,8.08-.24,1.68-.4,2.8-1.44,2.8-1.2,0-2.24-1.2-2.24-4.16,0-6,1.2-13.68,2.8-13.68.88,0,1.44,1.2,1.68,4.32,4.48-.16,9.76-.24,15-.24,3.84,0,7.12.08,10.4.16.16-3.2.64-4.4,1.44-4.4.64,0,1.2.72,1.68,4.48,1.84.16,2.08.64,2.08,1.12a2.44,2.44,0,0,1-1.68,2c.32,4.08.4,5.68.4,6.4,0,2.48-.8,4.48-2.24,4.48-.64,0-1-.56-1.12-1.92a67.79,67.79,0,0,1-.56-8.8,91.88,91.88,0,0,0-9.76-.72c.16,11,.16,7.6.24,19.28,0,5.2-.4,9.2-1.44,11.36,3.84-.08,7.76-.16,9.12-.16,1.12,0,1.36.32,1.36.88,0,1-2.16,2.32-6.56,2.32C576.36,214.51,570.68,214.19,568.92,214Z" transform="translate(-63.36 -128)"/><path class="cls-9" d="M474.29,146.19c.37-5.38,2-9.5,4.12-9.5.88,0,1.38.75,1.38,2.5,0,1.25-.13,3.25-.13,5.75,0,10.62,1.75,12.62,1.75,18,0,4.62-1.87,7.62-3.87,7.62-2.5,0-3.38-2.12-3.38-20a75.38,75.38,0,0,0-12.5-1.12c-10.87,0-16.87,6.37-16.87,14.12s3.12,11.75,12.62,16.38l9.5,4.75c18.63,9.12,21.88,14.62,21.88,23.12,0,14.25-9.38,25.63-29.75,25.63-19.13,0-28.63-7.13-28.63-21.25,0-7.75,4.25-13.88,8.25-13.88a1.15,1.15,0,0,1,1.25,1.13c0,1.75-2,5.25-2,12.5,0,9,6.75,16.12,22.5,16.12,13.13,0,21-6.5,21-15.87,0-7.38-4.12-12-18.87-19.88l-9.13-4.87c-10.25-5.5-15.12-11.5-15.12-22,0-11.88,9.62-20.75,24.37-20.75A44.24,44.24,0,0,1,474.29,146.19Z" transform="translate(-63.36 -128)"/><path class="cls-9" d="M385.19,215.68c-3.28-1.2-4.24-1.84-4.24-2.48s1-1.12,1.68-1.12,3,.8,5,1.2l.48-30.32-5.12-.24c-1-.08-1.36-.32-1.36-.88s.8-1.84,4.08-1.84a39.31,39.31,0,0,1,6.48.64,25.18,25.18,0,0,1,9-1.68c13.6,0,20.56,7.12,20.56,17,0,12.64-7.36,21.76-23,21.76A43.63,43.63,0,0,1,385.19,215.68Zm32.08-17c0-8.72-5.12-17.6-24.48-15.84l.08,31.6a39.12,39.12,0,0,0,6.48.72C409.75,215.2,417.27,209.68,417.27,198.72Z" transform="translate(-63.36 -128)"/><path class="cls-9" d="M338.43,216.32c-2.24-.24-2.4-.56-2.4-1,0-1.12,1.6-1.52,4.24-1.6.48-6.48.56-18.32.56-28.32-4.16-4.24-4.8-5.28-4.8-6.56,0-.8.8-1.28,1.92-1.28,2.64,0,4.4,1.52,5.6,4.24A314.35,314.35,0,0,1,369,210.64l-.57-27.44c-6.88-.4-7.76-.72-7.76-1.44,0-1,1.45-1.68,4-1.68,3.84,0,8.33-.16,10.57-.16,1,0,1.2.24,1.2.8,0,1-1.12,1.84-4.24,2.72v27c0,4.48-1.84,7-3.69,7-1.35,0-2.24-2.16-5-5.68-5.28-7-13.28-16.32-19.68-23.2.08,7.44.08,18,0,25.12,4.08,0,8.72-.16,10.72-.16,1.12,0,1.37.32,1.37.88,0,1-2.25,2.32-6.73,2.32C344.91,216.72,340.19,216.48,338.43,216.32Z" transform="translate(-63.36 -128)"/><path class="cls-9" d="M333.4,197.12c0,12.56-7.68,20.48-19.44,20.48-10.8,0-17.6-6-17.6-17.44,0-8.72,3.92-16.08,10.56-19.44,1.92-1.52,3.76-2.16,8.24-2.16C326.2,178.56,333.4,186.88,333.4,197.12Zm-32.4,2c0,8.72,4.32,15.44,14.16,15.44,8.48,0,14.32-6,14.32-16,0-11-9.2-16.88-22.24-15.84C303.24,186.32,301,191.28,301,199.12Z" transform="translate(-63.36 -128)"/><path class="cls-9" d="M279.35,216.32c-1.2-.08-1.43-.4-1.43-.8,0-1.36,2.87-1.68,5.6-1.68h.07c-.63-9-1.67-19.44-2.24-27.84-3.52,8.32-9.44,21.92-13.84,31.28a.8.8,0,0,1-.8.48c-.72,0-1-.4-1.68-2.08-3.92-9.92-9.2-19.84-13.68-28.16-.64,10.08-1,13.92-1.6,20.16-.4,3.76-.88,5.6-2.24,6.4,6,0,9.68-.64,10.64-.64.56,0,1,.24,1,.88,0,1-1.2,2.64-7.2,2.64-8.32,0-11.2-.4-11.2-1.6,0-.56.64-1.52,2.88-1.52.56,0,1,0,2,.08,1-7.68,2.24-19.28,3.2-29.12a11,11,0,0,1-.8-4.16c0-2.56.88-5,3.36-5,.8,0,1.36.4,1.36,1.68,0,.56-.08,1.76-.24,3.12,3.6,6,11.92,21.36,15.44,29.52,4.16-8.8,9.12-19.36,12.4-28.16.65-1.76,1.76-4.56,3.84-4.56.89,0,1.29.72,1.45,2.8.15,1.76.32,4.56.63,7.6.73,7.44,1.6,16,2.48,26.32,1.6.08,3.29.16,4.33.16s1.28.32,1.28.8c0,.8-1.2,2.24-4.08,2.24C286.79,217.2,283.59,216.72,279.35,216.32Z" transform="translate(-63.36 -128)"/><path class="cls-9" d="M217.69,216.32c-2.16-.24-2.32-.56-2.32-1,0-1.2,1.84-1.6,4.64-1.6h2.88c-.88-2.4-2.08-5.36-3.36-8.56-3.92.24-8.24.32-12.72.32a8,8,0,0,1-4.4-.88c-1.12,3.12-2.24,6.32-3.2,9.36,1.36.08,2.8.08,4.16.08,2.08,0,3.44-.4,4.64-.4.64,0,1.52.4,1.52,1,0,1.12-2.24,2.24-7.12,2.24-6.8,0-10-1-10-2.08,0-.56.88-1.12,2.32-1.12h1.2c3.76-10.48,8.24-21.28,11.28-28.48,1-2.32,1.76-3.52,2.48-3.92-.48-3.6.4-5.68,1.6-5.68.48,0,.88.4,1.28,1.2.48,1,.88,2.48,1.28,3.36,5.76,12,9.76,21.6,14.64,33.44,1.52-.08,2.88-.08,3.76-.08,1.12,0,1.36.32,1.36.88,0,1-2.16,2.24-6.56,2.24C223.53,216.72,219.45,216.48,217.69,216.32Zm-14.48-13.84c1.2-.08,3.2-.16,6.72-.16h8.48c-2.4-5.84-5.2-12.4-7.92-18.4C208.17,189.52,205.61,196,203.21,202.48Z" transform="translate(-63.36 -128)"/><path class="cls-9" d="M167.92,216.32c-2.16-.24-2.32-.56-2.32-1,0-1.2,1.84-1.6,4.64-1.6h3c-.24-10.4-.24-20.64.16-30.88-2.4-.08-4.56-.24-5.36-.32-2-.16-2.32-.4-2.32-.8,0-.88,1.68-2,4.24-2,4.08,0,11.92.56,14.16.64,1,.08,1.2.32,1.2.88,0,.88-1.76,1.68-5.28,1.68h-1.6c.08,8.16.08,16.24,0,24.32a15.82,15.82,0,0,1-1,6.48c3-.08,5.76-.16,7.12-.16,1.12,0,1.36.32,1.36.88,0,1-2.16,2.24-6.56,2.24C175.12,216.72,169.68,216.48,167.92,216.32Z" transform="translate(-63.36 -128)"/><path class="cls-9" d="M93.49,142.77c.87-8.5,2.75-13.75,5.25-13.75,1.12,0,1.5.62,1.5,2.12v10.75c2.75-.25,5.75-.37,8.75-.37,35.75,0,51,18,51,43.5,0,25.12-13,44.5-50.88,44.5a74.31,74.31,0,0,1-16.5-2,15.52,15.52,0,0,1-6.25,1.12c-8.12,0-14.75-4.5-14.75-11,0-1.12.5-2,1.63-2,2.75,0,8,4.25,18.25,7A50.82,50.82,0,0,0,92.74,210c0-10.25.37-52.63.37-57.13,0-1.75,0-3.5.13-5.25-14.5,2.25-22.5,9.25-22.5,21.13a32.89,32.89,0,0,0,2.12,12.62,4.58,4.58,0,0,1,.5,1.88.89.89,0,0,1-1,.87c-4.25,0-8.5-5.37-8.5-15.12C63.86,154.27,76.36,145.77,93.49,142.77Zm6.75,4.12v63.63c0,5.37-.75,10-3,13.37A120.27,120.27,0,0,0,112.61,225c28.25,0,39.88-14.5,39.88-36.38,0-24.62-15-41.87-47.38-41.87C103.36,146.77,101.74,146.89,100.24,146.89Z" transform="translate(-63.36 -128)"/></g></svg>